<svg width="300px" height="168px" style="shape-rendering:geometricPrecision; text-rendering:geometricPrecision; image-rendering:optimizeQuality; fill-rule:evenodd; clip-rule:evenodd"
viewBox="0 0 181.49 101.4">
  <style type="text/css">
    .cjsnyman_logo_name_outline {fill:#FEFEFE}
    .cjsnyman_logo_background_outline {fill:#282829}
    .cjsnyman_logo_background {fill:#4B4B4D;fill-rule:nonzero}
    .cjsnyman_logo_name {fill:#373435;fill-rule:nonzero}
  </style>
 <g id="Layer_x0020_1">
  <g id="_2917335066656">
   <g>
    <path class="cjsnyman_logo_background_outline" d="M84.86 26.09c2.36,3.65 4.24,7.88 4.24,12.27 0,1.2 -0.47,2.43 -1.86,2.43 -1.5,0 -1.7,-1.76 -1.7,-2.89 0,-3.56 -1.3,-6.9 -3.17,-9.88 -6.35,4.5 -14.14,7.63 -21.49,9.94 -7.99,2.5 -16.65,4.44 -25.06,4.44 -0.71,0 -1.42,-0.02 -2.13,-0.07 -4.74,6.75 -8.4,14.58 -8.4,22.97 0,4.5 1.22,8.61 4.56,11.73 3.46,3.24 8,4.31 12.64,4.31 11.51,0 20.51,-6.21 27.61,-14.9 3.85,-4.71 7.3,-10.56 7.3,-16.83 0,-2.34 -0.6,-4.52 -2.3,-6.19 -1.71,-1.68 -3.89,-2.28 -6.24,-2.28 -5.38,0 -10.46,3.59 -14.25,7.07 -3.17,2.92 -6.95,7.12 -7.58,11.69 0.72,-0.47 1.52,-0.79 2.39,-0.79 2.56,0 3.82,1.64 3.82,4.11 0,3.28 -1.73,5.18 -5.04,5.18 -3.4,0 -4.71,-2.4 -4.71,-5.5 0,-6.59 3.88,-12.19 8.43,-16.61 4.68,-4.54 10.45,-8.14 17.16,-8.14 8.24,0 11.77,4.96 11.77,12.85 0,9.46 -5.05,17.02 -12.03,23.03 -7.64,6.59 -16.44,10.3 -26.56,10.3 -6.73,0 -12.58,-2.23 -17.38,-6.97 -4.77,-4.7 -7.05,-10.51 -7.05,-17.19 0,-6.79 2.45,-13.13 6,-18.81 -10.68,-2.18 -23.53,-7.11 -23.53,-19.86 0,-6.84 3.9,-11.82 9.47,-15.45 6.86,-4.47 14.91,-6.05 23,-6.05 13.8,0 26.59,5 38.06,12.41 2.16,-0.41 4.36,-0.61 6.56,-0.61 4.33,0 12.17,0.57 12.17,6.51 0,3.15 -2.35,5.83 -4.7,7.78zm81.12 -15.75c-6.01,5.01 -11.39,10.7 -15.89,17.11 -5.37,7.64 -9.92,16.62 -13.91,25.13 5.92,-0.05 10.85,-2.27 14.87,-6.65 2.23,-2.43 3.51,-5.53 4.23,-8.74 0.22,-0.84 0.69,-1.68 1.67,-1.68 0.95,0 1.54,0.69 1.54,1.61 0,5.26 -3.32,9.46 -7.22,12.64 -4.41,3.6 -9.47,5.81 -15.21,5.81 -0.43,0 -0.88,-0.01 -1.32,-0.04 -0.98,2.09 -2.04,4.17 -3.05,6.24 -2.04,4.15 -4.16,8.29 -6.48,12.29 -1.63,2.84 -3.41,5.72 -5.42,8.3 -3.49,4.5 -7.85,8.19 -12.65,11.22 -7.73,4.87 -16.21,7.82 -25.4,7.82 -4.46,0 -8.92,-0.91 -12.62,-3.52 -3.2,-2.24 -5.14,-5.28 -5.14,-9.24 0,-2 0.55,-3.85 1.82,-5.41 1.2,-1.48 2.78,-2.33 4.7,-2.33 3.06,0 4.72,1.73 4.72,4.78 0,3.31 -1.59,5.5 -5.05,5.5 -1.36,0 -2.34,-0.48 -3,-1.27 0.36,2.34 1.88,4.09 3.91,5.45 3.12,2.1 6.85,2.82 10.57,2.82 9.69,0 17.55,-4.14 23.95,-11.34 2.95,-3.32 5.5,-6.99 7.7,-10.84 4.11,-7.2 8.12,-14.45 12.24,-21.64l0.28 -0.47c-3.31,-1.24 -6.14,-3.23 -8.32,-6.08 -2.4,-3.14 -3.57,-6.71 -3.57,-10.67 0,-7.25 3.12,-13.1 8.73,-17.64 3.06,-2.48 6.49,-4.55 10.27,-5.73 2.3,-0.71 4.78,-1.19 7.14,-1.61 3.67,-0.65 7.38,-1.16 11.09,-1.61 4.48,-0.55 8.97,-1.48 13.36,-2.56 3.48,-2.23 10.72,-6.73 14.85,-6.73 1,0 1.82,0.59 1.82,1.65 0,1.68 -3.83,3.28 -5.09,3.86 -3.27,1.46 -6.67,2.62 -10.12,3.57zm-91.37 4.77c3.23,2.47 6.12,5.32 8.59,8.56 1.52,-1.4 3.39,-3.48 3.39,-5.34 0,-3.43 -5.6,-3.54 -7.92,-3.54 -1.34,0 -2.71,0.12 -4.06,0.32zm-4.18 0.76c-7.07,1.98 -13.63,5.33 -19.64,9.54 -5.61,3.93 -10.66,8.55 -14.85,13.96 7.94,-0.25 15.92,-1.93 23.49,-4.21 7.28,-2.2 15.04,-5.22 21.33,-9.64 -2.82,-3.82 -6.4,-7 -10.33,-9.65zm-4.22 -2.53c-10.37,-5.54 -21.49,-8.4 -33.35,-8.4 -7.18,0 -14.05,1.57 -20.16,5.43 -4.39,2.78 -8.38,6.69 -8.38,12.22 0,10.85 12.38,14.57 21.19,16.17 10.01,-13.66 24.57,-21.38 40.7,-25.42zm92.55 -1.2c-1.65,0.38 -3.31,0.75 -4.96,1.11 -5.18,1.16 -10.92,2.54 -15.83,4.59 -3.54,1.48 -6.81,3.49 -9.73,5.98 -4.93,4.2 -9.26,9.71 -9.26,16.49 0,5.71 3.32,8.98 8.34,10.86 7.87,-14.13 18.25,-29.08 31.44,-39.03z"/>
   </g>
   <path class="cjsnyman_logo_background" d="M88.52 18.32c0,2.42 -1.68,4.94 -5.04,7.56 3.06,4.5 4.58,8.66 4.58,12.48 0,0.94 -0.26,1.4 -0.82,1.4 -0.44,0 -0.67,-0.61 -0.67,-1.85 0,-3.73 -1.31,-7.53 -3.93,-11.37 -5.4,4.03 -12.75,7.51 -22.07,10.43 -9.3,2.92 -17.55,4.39 -24.75,4.39 -1.01,0 -1.89,-0.04 -2.63,-0.11 -5.96,8.32 -8.94,16.34 -8.94,24.05 0,5.27 1.63,9.44 4.89,12.49 3.26,3.06 7.71,4.58 13.35,4.58 10.61,0 20.08,-5.09 28.41,-15.27 5.02,-6.15 7.54,-11.97 7.54,-17.49 0,-2.9 -0.88,-5.21 -2.62,-6.93 -1.75,-1.72 -4.06,-2.58 -6.97,-2.58 -4.64,0 -9.62,2.45 -14.95,7.35 -5.32,4.89 -8,9.45 -8,13.71 0,0.36 0.12,0.56 0.33,0.56 0.19,-0.04 0.32,-0.12 0.44,-0.23 0.99,-0.9 1.91,-1.34 2.75,-1.34 1.85,0 2.79,1.03 2.79,3.07 0,2.77 -1.34,4.15 -4.01,4.15 -2.45,0 -3.67,-1.49 -3.67,-4.47 0,-5.33 2.71,-10.62 8.11,-15.87 5.41,-5.23 10.89,-7.84 16.44,-7.84 7.16,0 10.73,3.93 10.73,11.81 0,8.14 -3.89,15.55 -11.66,22.25 -7.79,6.7 -16.4,10.04 -25.89,10.04 -6.61,0 -12.15,-2.21 -16.65,-6.66 -4.49,-4.43 -6.74,-9.93 -6.74,-16.46 0,-6.34 2.21,-12.85 6.66,-19.53 -16.13,-2.98 -24.19,-9.36 -24.19,-19.14 0,-5.82 3,-10.67 8.99,-14.58 6.02,-3.92 13.48,-5.88 22.44,-5.88 12.49,0 25.11,4.16 37.84,12.46 2.22,-0.43 4.47,-0.66 6.78,-0.66 7.43,0 11.13,1.83 11.13,5.48zm-0.9 0.01c0,-3.05 -2.98,-4.58 -8.95,-4.58 -1.85,0 -4.09,0.25 -6.65,0.77 4.43,3.05 8.1,6.62 11.02,10.67 3.06,-2.6 4.58,-4.89 4.58,-6.86zm-5.42 7.43c-2.86,-4.14 -6.74,-7.81 -11.59,-11.01 -6.97,1.89 -13.77,5.17 -20.41,9.81 -6.64,4.66 -12.09,9.95 -16.34,15.88 7.81,0 16.42,-1.43 25.87,-4.29 9.47,-2.85 16.95,-6.32 22.47,-10.39zm-13.15 -12.03c-11.33,-6.55 -23.39,-9.83 -36.19,-9.83 -7.9,0 -14.79,1.87 -20.71,5.59 -5.9,3.75 -8.86,8.1 -8.86,13.1 0,8.92 7.56,14.69 22.68,17.3 9.39,-13.12 23.75,-21.82 43.08,-26.16zm111.1 -10.82c0,0.57 -1.49,1.52 -4.47,2.92 -3.09,1.37 -6.49,2.56 -10.19,3.57 -6.42,5.33 -11.82,11.15 -16.25,17.45 -4.41,6.28 -9.32,15.22 -14.69,26.77l1.4 0c6.3,0 11.59,-2.33 15.86,-6.99 2.12,-2.31 3.61,-5.36 4.47,-9.18 0.16,-0.59 0.37,-0.9 0.67,-0.9 0.34,0 0.5,0.19 0.5,0.57 0,4.17 -2.27,8.12 -6.84,11.84 -4.56,3.72 -9.41,5.58 -14.55,5.58 -0.78,0 -1.43,-0.04 -1.94,-0.12 -0.23,0.5 -1.36,2.79 -3.37,6.89 -4.65,9.51 -8.59,16.31 -11.78,20.41 -3.18,4.11 -7.31,7.78 -12.39,10.98 -8.09,5.1 -16.38,7.66 -24.84,7.66 -4.89,0 -8.9,-1.11 -12.03,-3.32 -3.13,-2.2 -4.69,-5 -4.69,-8.4 0,-1.86 0.53,-3.44 1.58,-4.76 1.07,-1.3 2.37,-1.95 3.9,-1.95 2.46,0 3.68,1.25 3.68,3.75 0,2.98 -1.34,4.46 -4.01,4.46 -1.93,0 -2.96,-1.2 -3.07,-3.62 0,-0.16 -0.04,-0.29 -0.1,-0.4 -0.63,0 -0.95,0.89 -0.95,2.69 0,2.94 1.49,5.42 4.45,7.41 2.96,2 6.68,2.99 11.15,2.99 9.54,0 17.79,-3.89 24.72,-11.68 2.71,-3.06 5.33,-6.72 7.83,-11.02 4.07,-7.2 8.13,-14.39 12.24,-21.63l0.9 -1.57c-3.76,-1.16 -6.78,-3.2 -9.01,-6.13 -2.24,-2.92 -3.37,-6.26 -3.37,-10.04 0,-6.7 2.79,-12.31 8.35,-16.84 3.28,-2.63 6.59,-4.49 9.93,-5.54 3.34,-1.03 9.35,-2.1 18.04,-3.18 3.8,-0.44 8.36,-1.32 13.65,-2.62 6.93,-4.45 11.74,-6.66 14.44,-6.66 0.51,0 0.78,0.21 0.78,0.61zm-16.29 6.95c-2.54,0.63 -5.95,1.43 -10.29,2.38 -7.01,1.57 -12.33,3.12 -16,4.64 -3.65,1.53 -6.99,3.59 -10,6.15 -6.42,5.48 -9.63,11.25 -9.63,17.28 0,5.9 3.29,9.93 9.86,12.13 11.17,-20.22 23.19,-34.43 36.06,-42.58z"/>
   <g>
    <path class="cjsnyman_logo_name_outline" d="M1.22 54.88l3.84 -0.35c0.72,-0.06 1.36,0.46 1.45,1.18 0.13,1.12 0.42,2.29 1.05,3.23 0.6,0.9 1.55,1.51 2.53,1.93 1.32,0.58 2.75,0.81 4.19,0.81 1.23,0 2.49,-0.16 3.63,-0.6 0.79,-0.31 1.56,-0.76 2.06,-1.45 0.4,-0.57 0.63,-1.17 0.63,-1.87 0,-0.64 -0.17,-1.2 -0.56,-1.7 -0.5,-0.65 -1.46,-1.1 -2.2,-1.39 -1.59,-0.61 -3.67,-1.05 -5.33,-1.45 -1.95,-0.47 -4.49,-1.1 -6.27,-2.04 -1.51,-0.8 -2.86,-1.89 -3.78,-3.35 -0.88,-1.38 -1.3,-2.92 -1.3,-4.56 0,-1.85 0.54,-3.56 1.55,-5.1 1.09,-1.68 2.64,-2.84 4.48,-3.6 1.96,-0.81 4.05,-1.15 6.17,-1.15 2.24,0 4.49,0.33 6.57,1.21 1.9,0.8 3.49,2.02 4.63,3.75 1.1,1.67 1.65,3.55 1.73,5.54 0.03,0.72 -0.52,1.34 -1.24,1.39l-3.92 0.31c-0.72,0.05 -1.36,-0.48 -1.43,-1.2 -0.15,-1.34 -0.58,-2.64 -1.65,-3.51 -1.2,-0.98 -3.04,-1.19 -4.53,-1.19 -1.39,0 -3.43,0.15 -4.56,1.06 -0.73,0.58 -1.19,1.28 -1.19,2.23 0,0.7 0.22,1.26 0.75,1.74 0.88,0.79 4.4,1.62 5.55,1.88 2.19,0.5 5.06,1.12 7.1,2.06 1.78,0.82 3.41,1.97 4.52,3.61 1.04,1.53 1.51,3.27 1.51,5.12 0,1.94 -0.57,3.73 -1.63,5.36 -1.13,1.75 -2.72,3.01 -4.61,3.87 -2.05,0.94 -4.25,1.33 -6.49,1.33 -2.54,0 -5.19,-0.32 -7.53,-1.33 -2.08,-0.9 -3.78,-2.27 -5.03,-4.16 -1.23,-1.89 -1.85,-3.99 -1.91,-6.24 -0.02,-0.71 0.51,-1.31 1.22,-1.37zm49.19 0.19l0 -19.8c0,-0.74 0.6,-1.34 1.34,-1.34l3.92 0c0.74,0 1.34,0.6 1.34,1.34l0 30.85c0,0.74 -0.6,1.34 -1.34,1.34l-4.19 0c-0.46,0 -0.86,-0.21 -1.12,-0.59l-13.73 -20.54 0 19.79c0,0.74 -0.6,1.34 -1.34,1.34l-3.92 0c-0.74,0 -1.34,-0.6 -1.34,-1.34l0 -30.85c0,-0.74 0.6,-1.34 1.34,-1.34l4.2 0c0.46,0 0.85,0.21 1.11,0.6l13.73 20.54zm19.47 -1.61l-11.66 -17.44c-0.28,-0.42 -0.31,-0.93 -0.07,-1.38 0.24,-0.45 0.68,-0.71 1.18,-0.71l4.92 0c0.46,0 0.86,0.22 1.12,0.61l6.09 9.34c0.71,1.08 1.4,2.17 2.06,3.28 0.74,-1.19 1.5,-2.37 2.26,-3.53l5.98 -9.09c0.25,-0.39 0.65,-0.61 1.12,-0.61l4.76 0c0.51,0 0.95,0.27 1.19,0.72 0.24,0.45 0.2,0.97 -0.09,1.39l-12.08 17.43 0 12.65c0,0.74 -0.6,1.34 -1.34,1.34l-4.1 0c-0.73,0 -1.34,-0.6 -1.34,-1.34l0 -12.66zm36.21 3.89c0.12,-0.35 0.24,-0.71 0.36,-1.06l7.43 -21.46c0.19,-0.55 0.68,-0.9 1.26,-0.9l5.47 0c0.74,0 1.34,0.6 1.34,1.34l0 30.85c0,0.74 -0.6,1.34 -1.34,1.34l-3.92 0c-0.74,0 -1.34,-0.6 -1.34,-1.34l0 -17.89 -6.4 18.33c-0.19,0.55 -0.69,0.9 -1.27,0.9l-3.67 0c-0.59,0 -1.09,-0.35 -1.27,-0.91l-6.3 -18.58 0 18.15c0,0.74 -0.6,1.34 -1.34,1.34l-3.92 0c-0.74,0 -1.34,-0.6 -1.34,-1.34l0 -30.85c0,-0.74 0.6,-1.34 1.34,-1.34l6.12 0c0.59,0 1.08,0.36 1.27,0.92l7.3 21.84c0.07,0.22 0.14,0.44 0.22,0.66zm37.43 0.76l-11.12 0 -3.03 8.46c-0.2,0.55 -0.69,0.89 -1.27,0.89l-4.33 0c-0.45,0 -0.84,-0.2 -1.1,-0.58 -0.26,-0.37 -0.31,-0.81 -0.15,-1.24l11.84 -30.85c0.2,-0.53 0.68,-0.86 1.25,-0.86l4.49 0c0.55,0 1.03,0.32 1.24,0.84l12.56 30.85c0.17,0.42 0.12,0.87 -0.13,1.25 -0.26,0.38 -0.65,0.59 -1.11,0.59l-4.65 0c-0.57,0 -1.05,-0.33 -1.25,-0.86l-3.24 -8.49zm31.37 -3.04l0 -19.8c0,-0.74 0.6,-1.34 1.34,-1.34l3.92 0c0.74,0 1.34,0.6 1.34,1.34l0 30.85c0,0.74 -0.6,1.34 -1.34,1.34l-4.19 0c-0.46,0 -0.86,-0.21 -1.12,-0.59l-13.73 -20.54 0 19.79c0,0.74 -0.6,1.34 -1.34,1.34l-3.92 0c-0.74,0 -1.34,-0.6 -1.34,-1.34l0 -30.85c0,-0.74 0.6,-1.34 1.34,-1.34l4.19 0c0.47,0 0.86,0.21 1.12,0.6l13.73 20.54zm-37.01 -11.9c-0.18,0.57 -0.38,1.14 -0.59,1.7l-2.71 7.24 6.65 0 -2.54 -6.73c-0.28,-0.74 -0.55,-1.48 -0.81,-2.21z"/>
   </g>
   <path class="cjsnyman_logo_name" d="M1.34 56.21l3.84 -0.34c0.17,1.55 0.6,2.82 1.27,3.82 0.66,0.99 1.7,1.79 3.1,2.41 1.4,0.61 2.98,0.92 4.73,0.92 1.56,0 2.93,-0.23 4.12,-0.7 1.19,-0.46 2.08,-1.1 2.66,-1.91 0.58,-0.81 0.88,-1.7 0.88,-2.65 0,-0.96 -0.28,-1.8 -0.84,-2.52 -0.57,-0.72 -1.49,-1.32 -2.78,-1.82 -0.83,-0.32 -2.66,-0.82 -5.5,-1.5 -2.83,-0.68 -4.82,-1.32 -5.95,-1.93 -1.47,-0.77 -2.56,-1.73 -3.28,-2.88 -0.73,-1.14 -1.09,-2.42 -1.09,-3.84 0,-1.56 0.45,-3.02 1.33,-4.37 0.89,-1.36 2.17,-2.38 3.87,-3.09 1.7,-0.7 3.59,-1.05 5.66,-1.05 2.29,0 4.3,0.36 6.05,1.1 1.74,0.73 3.09,1.82 4.03,3.26 0.94,1.42 1.44,3.05 1.51,4.86l-3.92 0.3c-0.21,-1.95 -0.92,-3.42 -2.13,-4.41 -1.22,-1 -3.01,-1.49 -5.38,-1.49 -2.47,0 -4.27,0.45 -5.4,1.35 -1.13,0.91 -1.69,2 -1.69,3.28 0,1.1 0.4,2.01 1.19,2.73 0.79,0.71 2.84,1.45 6.16,2.2 3.32,0.75 5.59,1.41 6.83,1.97 1.78,0.82 3.11,1.87 3.97,3.14 0.85,1.26 1.28,2.72 1.28,4.37 0,1.64 -0.47,3.18 -1.41,4.63 -0.94,1.45 -2.28,2.58 -4.04,3.38 -1.76,0.81 -3.74,1.21 -5.94,1.21 -2.79,0 -5.12,-0.41 -7,-1.22 -1.89,-0.81 -3.36,-2.03 -4.43,-3.67 -1.08,-1.63 -1.64,-3.48 -1.7,-5.54zm30.03 9.91l0 -30.85 4.2 0 16.18 24.22 0 -24.22 3.92 0 0 30.85 -4.19 0 -16.19 -24.21 0 24.21 -3.92 0zm39.85 0l0 -13.07 -11.89 -17.78 4.91 0 6.1 9.34c1.14,1.73 2.19,3.46 3.15,5.19 0.94,-1.62 2.09,-3.43 3.41,-5.44l5.98 -9.09 4.76 0 -12.32 17.78 0 13.07 -4.1 0zm19.96 0l0 -30.85 6.12 0 7.29 21.84c0.68,2.03 1.17,3.55 1.48,4.57 0.35,-1.12 0.9,-2.77 1.65,-4.95l7.42 -21.46 5.47 0 0 30.85 -3.92 0 0 -25.81 -9.01 25.81 -3.68 0 -8.9 -26.28 0 26.28 -3.92 0zm32.59 0l11.84 -30.85 4.49 0 12.55 30.85 -4.64 0 -3.57 -9.35 -12.99 0 -3.35 9.35 -4.33 0zm8.88 -12.66l10.51 0 -3.22 -8.56c-0.96,-2.6 -1.7,-4.74 -2.21,-6.44 -0.42,2.01 -0.99,3.99 -1.7,5.94l-3.38 9.06zm23.2 12.66l0 -30.85 4.19 0 16.19 24.22 0 -24.22 3.92 0 0 30.85 -4.19 0 -16.19 -24.21 0 24.21 -3.92 0z"/>
  </g>
 </g>
</svg>
