<?xml version="1.0" encoding="UTF-8"?>
<!DOCTYPE svg PUBLIC "-//W3C//DTD SVG 1.1//EN" "http://www.w3.org/Graphics/SVG/1.1/DTD/svg11.dtd">
<!-- Creator: CorelDRAW 2019 (64-Bit) -->
<svg xmlns="http://www.w3.org/2000/svg" xml:space="preserve" width="300px" height="168px" version="1.1" style="shape-rendering:geometricPrecision; text-rendering:geometricPrecision; image-rendering:optimizeQuality; fill-rule:evenodd; clip-rule:evenodd"
viewBox="0 0 4.9 2.74"
 xmlns:xlink="http://www.w3.org/1999/xlink"
 xmlns:xodm="http://www.corel.com/coreldraw/odm/2003">
 <defs>
  <style type="text/css">
   <![CDATA[
    .fil2 {fill:#FEFEFE}
    .fil0 {fill:#282829}
    .fil1 {fill:#4B4B4D;fill-rule:nonzero}
    .fil3 {fill:#373435;fill-rule:nonzero}
   ]]>
  </style>
 </defs>
 <g id="Layer_x0020_1">
  <metadata id="CorelCorpID_0Corel-Layer"/>
  <g id="_1847906590592">
   <path class="fil0" d="M2.29 0.7c0.06,0.1 0.12,0.22 0.12,0.34 0,0.03 -0.02,0.06 -0.05,0.06 -0.05,0 -0.05,-0.05 -0.05,-0.08 0,-0.09 -0.04,-0.18 -0.09,-0.26 -0.17,0.12 -0.38,0.2 -0.58,0.26 -0.21,0.07 -0.45,0.12 -0.67,0.12 -0.02,0 -0.04,0 -0.06,0 -0.13,0.18 -0.23,0.4 -0.23,0.62 0,0.12 0.04,0.24 0.13,0.32 0.09,0.09 0.21,0.12 0.34,0.12 0.31,0 0.55,-0.17 0.74,-0.41 0.11,-0.12 0.2,-0.28 0.2,-0.45 0,-0.06 -0.02,-0.12 -0.06,-0.17 -0.05,-0.04 -0.11,-0.06 -0.17,-0.06 -0.15,0 -0.28,0.1 -0.39,0.19 -0.08,0.08 -0.18,0.19 -0.2,0.32 0.02,-0.02 0.04,-0.02 0.06,-0.02 0.07,0 0.11,0.04 0.11,0.11 0,0.09 -0.05,0.14 -0.14,0.14 -0.09,0 -0.13,-0.07 -0.13,-0.15 0,-0.18 0.11,-0.33 0.23,-0.45 0.13,-0.12 0.28,-0.22 0.47,-0.22 0.22,0 0.31,0.13 0.31,0.35 0,0.25 -0.13,0.46 -0.32,0.62 -0.21,0.18 -0.45,0.28 -0.72,0.28 -0.18,0 -0.34,-0.06 -0.47,-0.19 -0.13,-0.13 -0.19,-0.29 -0.19,-0.47 0,-0.18 0.07,-0.35 0.16,-0.5 -0.28,-0.06 -0.63,-0.2 -0.63,-0.54 0,-0.18 0.1,-0.32 0.25,-0.42 0.19,-0.12 0.41,-0.16 0.62,-0.16 0.38,0 0.72,0.13 1.03,0.33 0.06,-0.01 0.12,-0.01 0.18,-0.01 0.12,0 0.33,0.01 0.33,0.17 0,0.09 -0.07,0.16 -0.13,0.21zm2.19 -0.42c-0.16,0.13 -0.31,0.29 -0.43,0.46 -0.14,0.21 -0.27,0.45 -0.37,0.68 0.16,0 0.29,-0.06 0.4,-0.18 0.06,-0.07 0.09,-0.15 0.11,-0.24 0.01,-0.02 0.02,-0.04 0.05,-0.04 0.02,0 0.04,0.02 0.04,0.04 0,0.14 -0.09,0.26 -0.2,0.34 -0.12,0.1 -0.25,0.16 -0.41,0.16 -0.01,0 -0.02,0 -0.03,0 -0.03,0.06 -0.06,0.11 -0.08,0.17 -0.06,0.11 -0.12,0.22 -0.18,0.33 -0.04,0.08 -0.09,0.15 -0.15,0.22 -0.09,0.12 -0.21,0.22 -0.34,0.31 -0.21,0.13 -0.44,0.21 -0.68,0.21 -0.12,0 -0.24,-0.03 -0.34,-0.1 -0.09,-0.06 -0.14,-0.14 -0.14,-0.25 0,-0.05 0.01,-0.1 0.05,-0.14 0.03,-0.04 0.07,-0.07 0.12,-0.07 0.09,0 0.13,0.05 0.13,0.13 0,0.09 -0.04,0.15 -0.14,0.15 -0.03,0 -0.06,-0.01 -0.08,-0.03 0.01,0.06 0.05,0.11 0.11,0.14 0.08,0.06 0.18,0.08 0.28,0.08 0.27,0 0.48,-0.11 0.65,-0.31 0.08,-0.09 0.15,-0.18 0.21,-0.29 0.11,-0.19 0.22,-0.39 0.33,-0.58l0.01 -0.02c-0.09,-0.03 -0.17,-0.08 -0.23,-0.16 -0.06,-0.08 -0.09,-0.18 -0.09,-0.29 0,-0.19 0.08,-0.35 0.23,-0.47 0.08,-0.07 0.18,-0.13 0.28,-0.16 0.06,-0.02 0.13,-0.03 0.19,-0.04 0.1,-0.02 0.2,-0.03 0.3,-0.05 0.12,-0.01 0.24,-0.04 0.36,-0.06 0.1,-0.06 0.29,-0.19 0.4,-0.19 0.03,0 0.05,0.02 0.05,0.05 0,0.04 -0.1,0.09 -0.14,0.1 -0.08,0.04 -0.18,0.07 -0.27,0.1zm-2.47 0.13c0.09,0.06 0.17,0.14 0.24,0.23 0.04,-0.04 0.09,-0.09 0.09,-0.15 0,-0.09 -0.15,-0.09 -0.22,-0.09 -0.03,0 -0.07,0 -0.11,0.01zm-0.11 0.02c-0.19,0.05 -0.37,0.14 -0.53,0.26 -0.15,0.1 -0.29,0.23 -0.4,0.37 0.21,0 0.43,-0.05 0.63,-0.11 0.2,-0.06 0.41,-0.14 0.58,-0.26 -0.08,-0.1 -0.17,-0.19 -0.28,-0.26zm-0.11 -0.07c-0.28,-0.15 -0.58,-0.23 -0.9,-0.23 -0.2,0 -0.38,0.05 -0.55,0.15 -0.12,0.07 -0.22,0.18 -0.22,0.33 0,0.29 0.33,0.39 0.57,0.44 0.27,-0.37 0.66,-0.58 1.1,-0.69zm2.5 -0.03c-0.05,0.01 -0.09,0.02 -0.14,0.03 -0.14,0.03 -0.29,0.07 -0.43,0.12 -0.09,0.04 -0.18,0.1 -0.26,0.16 -0.13,0.12 -0.25,0.27 -0.25,0.45 0,0.15 0.09,0.24 0.23,0.29 0.21,-0.38 0.49,-0.78 0.85,-1.05z"/>
  </g>
  <path class="fil1" d="M2.39 0.49c0,0.07 -0.05,0.14 -0.14,0.21 0.09,0.12 0.13,0.23 0.13,0.34 0,0.02 -0.01,0.03 -0.02,0.03 -0.02,0 -0.02,-0.01 -0.02,-0.05 0,-0.1 -0.04,-0.2 -0.11,-0.3 -0.14,0.11 -0.34,0.2 -0.59,0.28 -0.26,0.08 -0.48,0.12 -0.67,0.12 -0.03,0 -0.05,0 -0.07,-0.01 -0.16,0.23 -0.25,0.44 -0.25,0.65 0,0.15 0.05,0.26 0.14,0.34 0.08,0.08 0.2,0.12 0.36,0.12 0.28,0 0.54,-0.13 0.76,-0.41 0.14,-0.16 0.21,-0.32 0.21,-0.47 0,-0.08 -0.03,-0.14 -0.07,-0.19 -0.05,-0.04 -0.11,-0.07 -0.19,-0.07 -0.13,0 -0.26,0.07 -0.4,0.2 -0.15,0.13 -0.22,0.26 -0.22,0.37 0,0.01 0,0.02 0.01,0.02 0,0 0.01,-0.01 0.01,-0.01 0.03,-0.02 0.05,-0.04 0.07,-0.04 0.05,0 0.08,0.03 0.08,0.09 0,0.07 -0.04,0.11 -0.11,0.11 -0.06,0 -0.1,-0.04 -0.1,-0.12 0,-0.15 0.08,-0.29 0.22,-0.43 0.15,-0.14 0.3,-0.21 0.45,-0.21 0.19,0 0.28,0.1 0.28,0.32 0,0.22 -0.1,0.42 -0.31,0.6 -0.21,0.18 -0.44,0.27 -0.7,0.27 -0.18,0 -0.33,-0.06 -0.45,-0.18 -0.12,-0.12 -0.18,-0.27 -0.18,-0.45 0,-0.17 0.06,-0.34 0.18,-0.52 -0.44,-0.08 -0.65,-0.26 -0.65,-0.52 0,-0.16 0.08,-0.29 0.24,-0.39 0.16,-0.11 0.36,-0.16 0.6,-0.16 0.34,0 0.68,0.11 1.03,0.33 0.06,-0.01 0.12,-0.01 0.18,-0.01 0.2,0 0.3,0.05 0.3,0.14zm-0.02 0c0,-0.08 -0.08,-0.12 -0.25,-0.12 -0.05,0 -0.11,0.01 -0.18,0.02 0.12,0.08 0.22,0.18 0.3,0.29 0.08,-0.07 0.13,-0.13 0.13,-0.19zm-0.15 0.21c-0.08,-0.12 -0.18,-0.22 -0.31,-0.3 -0.19,0.05 -0.38,0.14 -0.55,0.26 -0.18,0.13 -0.33,0.27 -0.45,0.43 0.21,0 0.45,-0.04 0.7,-0.11 0.26,-0.08 0.46,-0.17 0.61,-0.28zm-0.36 -0.33c-0.3,-0.18 -0.63,-0.26 -0.97,-0.26 -0.22,0 -0.4,0.05 -0.56,0.15 -0.16,0.1 -0.24,0.21 -0.24,0.35 0,0.24 0.2,0.4 0.61,0.47 0.25,-0.36 0.64,-0.59 1.16,-0.71zm3 -0.29c0,0.01 -0.04,0.04 -0.12,0.08 -0.08,0.03 -0.17,0.07 -0.27,0.09 -0.18,0.15 -0.32,0.3 -0.44,0.47 -0.12,0.17 -0.25,0.42 -0.4,0.73l0.04 0c0.17,0 0.31,-0.07 0.43,-0.19 0.06,-0.06 0.1,-0.15 0.12,-0.25 0,-0.02 0.01,-0.02 0.02,-0.02 0.01,0 0.01,0 0.01,0.01 0,0.11 -0.06,0.22 -0.18,0.32 -0.13,0.1 -0.26,0.15 -0.4,0.15 -0.02,0 -0.04,0 -0.05,0 -0.01,0.01 -0.04,0.07 -0.09,0.19 -0.13,0.25 -0.23,0.44 -0.32,0.55 -0.08,0.11 -0.2,0.21 -0.33,0.29 -0.22,0.14 -0.44,0.21 -0.67,0.21 -0.14,0 -0.24,-0.03 -0.33,-0.09 -0.08,-0.06 -0.12,-0.14 -0.12,-0.23 0,-0.05 0.01,-0.09 0.04,-0.13 0.03,-0.03 0.06,-0.05 0.1,-0.05 0.07,0 0.1,0.04 0.1,0.1 0,0.08 -0.03,0.12 -0.11,0.12 -0.05,0 -0.08,-0.03 -0.08,-0.09 0,-0.01 0,-0.01 0,-0.02 -0.02,0 -0.03,0.03 -0.03,0.08 0,0.08 0.04,0.14 0.12,0.2 0.08,0.05 0.18,0.08 0.3,0.08 0.26,0 0.48,-0.11 0.67,-0.32 0.07,-0.08 0.15,-0.18 0.21,-0.29 0.11,-0.2 0.22,-0.39 0.33,-0.59l0.03 -0.04c-0.1,-0.03 -0.19,-0.09 -0.25,-0.17 -0.06,-0.08 -0.09,-0.17 -0.09,-0.27 0,-0.18 0.08,-0.33 0.23,-0.45 0.09,-0.07 0.18,-0.12 0.27,-0.15 0.09,-0.03 0.25,-0.06 0.48,-0.09 0.11,-0.01 0.23,-0.03 0.37,-0.07 0.19,-0.12 0.32,-0.18 0.39,-0.18 0.02,0 0.02,0.01 0.02,0.02zm-0.44 0.19c-0.06,0.01 -0.16,0.03 -0.27,0.06 -0.19,0.04 -0.34,0.08 -0.44,0.13 -0.09,0.04 -0.18,0.09 -0.27,0.16 -0.17,0.15 -0.26,0.31 -0.26,0.47 0,0.16 0.09,0.27 0.27,0.33 0.3,-0.55 0.63,-0.93 0.97,-1.15z"/>
  <g id="_1847906595488">
   <path class="fil2" d="M0.03 1.48l0.11 -0.01c0.02,0 0.03,0.01 0.04,0.03 0,0.03 0.01,0.07 0.02,0.09 0.02,0.03 0.05,0.04 0.07,0.05 0.04,0.02 0.08,0.03 0.12,0.03 0.03,0 0.06,-0.01 0.09,-0.02 0.02,-0.01 0.05,-0.02 0.06,-0.04 0.01,-0.02 0.02,-0.03 0.02,-0.05 0,-0.02 -0.01,-0.03 -0.02,-0.05 -0.01,-0.01 -0.04,-0.03 -0.06,-0.03 -0.04,-0.02 -0.1,-0.03 -0.14,-0.04 -0.06,-0.02 -0.12,-0.03 -0.17,-0.06 -0.04,-0.02 -0.08,-0.05 -0.1,-0.09 -0.03,-0.04 -0.04,-0.08 -0.04,-0.12 0,-0.05 0.02,-0.1 0.04,-0.14 0.03,-0.04 0.07,-0.08 0.12,-0.1 0.06,-0.02 0.11,-0.03 0.17,-0.03 0.06,0 0.12,0.01 0.18,0.03 0.05,0.03 0.09,0.06 0.12,0.11 0.03,0.04 0.05,0.09 0.05,0.15 0,0.02 -0.01,0.03 -0.03,0.03l-0.11 0.01c-0.02,0 -0.04,-0.01 -0.04,-0.03 0,-0.04 -0.01,-0.07 -0.04,-0.1 -0.04,-0.02 -0.08,-0.03 -0.13,-0.03 -0.03,0 -0.09,0.01 -0.12,0.03 -0.02,0.02 -0.03,0.04 -0.03,0.06 0,0.02 0.01,0.04 0.02,0.05 0.02,0.02 0.12,0.04 0.15,0.05 0.06,0.01 0.14,0.03 0.19,0.05 0.05,0.03 0.09,0.06 0.12,0.1 0.03,0.04 0.04,0.09 0.04,0.14 0,0.05 -0.01,0.1 -0.04,0.14 -0.03,0.05 -0.07,0.09 -0.12,0.11 -0.06,0.02 -0.12,0.04 -0.18,0.04 -0.07,0 -0.14,-0.01 -0.2,-0.04 -0.06,-0.02 -0.1,-0.06 -0.14,-0.11 -0.03,-0.05 -0.05,-0.11 -0.05,-0.17 0,-0.02 0.01,-0.04 0.03,-0.04zm1.33 0.01l0 -0.54c0,-0.02 0.02,-0.03 0.04,-0.03l0.1 0c0.02,0 0.04,0.01 0.04,0.03l0 0.84c0,0.02 -0.02,0.03 -0.04,0.03l-0.11 0c-0.01,0 -0.02,0 -0.03,-0.01l-0.37 -0.56 0 0.54c0,0.02 -0.02,0.03 -0.04,0.03l-0.1 0c-0.02,0 -0.04,-0.01 -0.04,-0.03l0 -0.84c0,-0.02 0.02,-0.03 0.04,-0.03l0.11 0c0.01,0 0.02,0 0.03,0.01l0.37 0.56zm0.53 -0.05l-0.32 -0.47c-0.01,-0.01 -0.01,-0.02 0,-0.03 0.01,-0.02 0.02,-0.02 0.03,-0.02l0.13 0c0.02,0 0.03,0 0.03,0.01l0.17 0.25c0.02,0.03 0.04,0.06 0.05,0.09 0.02,-0.03 0.05,-0.06 0.07,-0.09l0.16 -0.25c0,-0.01 0.01,-0.01 0.03,-0.01l0.13 0c0.01,0 0.02,0 0.03,0.02 0,0.01 0,0.02 0,0.03l-0.33 0.47 0 0.35c0,0.02 -0.02,0.03 -0.04,0.03l-0.11 0c-0.02,0 -0.03,-0.01 -0.03,-0.03l0 -0.35zm0.97 0.11c0.01,-0.01 0.01,-0.02 0.01,-0.03l0.2 -0.58c0.01,-0.01 0.02,-0.02 0.04,-0.02l0.15 0c0.02,0 0.03,0.01 0.03,0.03l0 0.84c0,0.02 -0.01,0.03 -0.03,0.03l-0.11 0c-0.02,0 -0.04,-0.01 -0.04,-0.03l0 -0.49 -0.17 0.5c0,0.01 -0.02,0.02 -0.03,0.02l-0.1 0c-0.02,0 -0.03,-0.01 -0.04,-0.02l-0.17 -0.5 0 0.49c0,0.02 -0.01,0.03 -0.03,0.03l-0.11 0c-0.02,0 -0.03,-0.01 -0.03,-0.03l0 -0.84c0,-0.02 0.01,-0.03 0.03,-0.03l0.17 0c0.01,0 0.03,0.01 0.03,0.02l0.2 0.59c0,0.01 0,0.01 0,0.02zm1.01 0.02l-0.3 0 -0.08 0.23c0,0.01 -0.02,0.02 -0.03,0.02l-0.12 0c-0.01,0 -0.02,0 -0.03,-0.01 -0.01,-0.01 -0.01,-0.03 0,-0.04l0.32 -0.83c0,-0.01 0.02,-0.02 0.03,-0.02l0.12 0c0.02,0 0.03,0 0.04,0.02l0.33 0.83c0.01,0.01 0.01,0.02 0,0.04 -0.01,0.01 -0.02,0.01 -0.03,0.01l-0.12 0c-0.02,0 -0.03,-0.01 -0.04,-0.02l-0.09 -0.23zm0.85 -0.08l0 -0.54c0,-0.02 0.02,-0.03 0.04,-0.03l0.1 0c0.02,0 0.04,0.01 0.04,0.03l0 0.84c0,0.02 -0.02,0.03 -0.04,0.03l-0.11 0c-0.01,0 -0.02,0 -0.03,-0.01l-0.37 -0.56 0 0.54c0,0.02 -0.02,0.03 -0.04,0.03l-0.1 0c-0.02,0 -0.04,-0.01 -0.04,-0.03l0 -0.84c0,-0.02 0.02,-0.03 0.04,-0.03l0.11 0c0.01,0 0.02,0 0.03,0.01l0.37 0.56zm-1 -0.32c0,0.01 -0.01,0.03 -0.01,0.04l-0.08 0.2 0.18 0 -0.07 -0.19c0,-0.01 -0.01,-0.03 -0.02,-0.05z"/>
  </g>
  <path class="fil3" d="M0.04 1.52l0.1 -0.01c0,0.04 0.02,0.07 0.03,0.1 0.02,0.03 0.05,0.05 0.09,0.07 0.04,0.01 0.08,0.02 0.13,0.02 0.04,0 0.07,0 0.11,-0.02 0.03,-0.01 0.05,-0.03 0.07,-0.05 0.01,-0.02 0.02,-0.04 0.02,-0.07 0,-0.03 -0.01,-0.05 -0.02,-0.07 -0.02,-0.02 -0.04,-0.03 -0.08,-0.05 -0.02,-0.01 -0.07,-0.02 -0.14,-0.04 -0.08,-0.02 -0.13,-0.03 -0.16,-0.05 -0.04,-0.02 -0.07,-0.05 -0.09,-0.08 -0.02,-0.03 -0.03,-0.06 -0.03,-0.1 0,-0.04 0.01,-0.08 0.03,-0.12 0.03,-0.04 0.06,-0.06 0.11,-0.08 0.04,-0.02 0.09,-0.03 0.15,-0.03 0.06,0 0.12,0.01 0.16,0.03 0.05,0.02 0.09,0.05 0.11,0.09 0.03,0.03 0.04,0.08 0.04,0.13l-0.1 0.01c-0.01,-0.06 -0.03,-0.1 -0.06,-0.12 -0.03,-0.03 -0.08,-0.04 -0.15,-0.04 -0.06,0 -0.11,0.01 -0.14,0.03 -0.03,0.03 -0.05,0.06 -0.05,0.09 0,0.03 0.01,0.06 0.04,0.07 0.02,0.02 0.07,0.04 0.16,0.06 0.09,0.02 0.15,0.04 0.19,0.06 0.04,0.02 0.08,0.05 0.1,0.08 0.03,0.04 0.04,0.08 0.04,0.12 0,0.04 -0.01,0.09 -0.04,0.13 -0.03,0.03 -0.06,0.06 -0.11,0.09 -0.05,0.02 -0.1,0.03 -0.16,0.03 -0.07,0 -0.14,-0.01 -0.19,-0.03 -0.05,-0.03 -0.09,-0.06 -0.12,-0.1 -0.03,-0.05 -0.04,-0.1 -0.04,-0.15zm0.81 0.27l0 -0.84 0.11 0 0.44 0.66 0 -0.66 0.1 0 0 0.84 -0.11 0 -0.44 -0.66 0 0.66 -0.1 0zm1.07 0l0 -0.36 -0.32 -0.48 0.13 0 0.17 0.25c0.03,0.05 0.06,0.1 0.08,0.14 0.03,-0.04 0.06,-0.09 0.1,-0.14l0.16 -0.25 0.13 0 -0.34 0.48 0 0.36 -0.11 0zm0.54 0l0 -0.84 0.17 0 0.19 0.59c0.02,0.06 0.04,0.1 0.04,0.13 0.01,-0.04 0.03,-0.08 0.05,-0.14l0.2 -0.58 0.15 0 0 0.84 -0.11 0 0 -0.7 -0.24 0.7 -0.1 0 -0.24 -0.71 0 0.71 -0.11 0zm0.88 0l0.32 -0.84 0.12 0 0.34 0.84 -0.12 0 -0.1 -0.26 -0.35 0 -0.09 0.26 -0.12 0zm0.24 -0.35l0.28 0 -0.08 -0.23c-0.03,-0.07 -0.05,-0.13 -0.06,-0.17 -0.01,0.05 -0.03,0.11 -0.05,0.16l-0.09 0.24zm0.63 0.35l0 -0.84 0.11 0 0.44 0.66 0 -0.66 0.1 0 0 0.84 -0.11 0 -0.44 -0.66 0 0.66 -0.1 0z"/>
 </g>
</svg>
