<?xml version="1.0" encoding="UTF-8"?>
<!DOCTYPE svg PUBLIC "-//W3C//DTD SVG 1.1//EN" "http://www.w3.org/Graphics/SVG/1.1/DTD/svg11.dtd">
<!-- Creator: CorelDRAW 2019 (64-Bit) -->
<svg xmlns="http://www.w3.org/2000/svg" xml:space="preserve" width="300px" height="50px" version="1.1" style="shape-rendering:geometricPrecision; text-rendering:geometricPrecision; image-rendering:optimizeQuality; fill-rule:evenodd; clip-rule:evenodd"
viewBox="0 0 4.94 0.82"
 xmlns:xlink="http://www.w3.org/1999/xlink"
 xmlns:xodm="http://www.corel.com/coreldraw/odm/2003">
 <defs>
  <style type="text/css">
   <![CDATA[
    .fil0 {fill:#52658C;fill-rule:nonzero}
   ]]>
  </style>
 </defs>
 <g id="Layer_x0020_1">
  <metadata id="CorelCorpID_0Corel-Layer"/>
  <path class="fil0" d="M0 0.8l0 -0.77 0.56 0 0 0.09 -0.46 0 0 0.24 0.43 0 0 0.09 -0.43 0 0 0.26 0.48 0 0 0.09 -0.58 0zm4.37 0l0 -0.77 0.56 0 0 0.09 -0.46 0 0 0.24 0.43 0 0 0.09 -0.43 0 0 0.26 0.47 0 0 0.09 -0.57 0zm-3.15 -0.24l-0.07 0.16c-0.01,0.02 -0.02,0.04 -0.03,0.05 0,0.01 -0.01,0.01 -0.02,0.01 -0.01,0 -0.02,0 -0.02,-0.01 -0.01,0 -0.02,-0.02 -0.03,-0.05 -0.02,-0.03 -0.03,-0.05 -0.04,-0.08l-0.07 -0.16c-0.01,-0.03 -0.03,-0.04 -0.04,-0.04 -0.01,0 -0.02,0.01 -0.02,0.03 0,0.05 0,0.09 0,0.12 0,0.04 0,0.07 0,0.08 0.01,0.01 0.01,0.02 0.02,0.02 0,0.01 0.01,0.01 0.03,0.02 0.01,0.01 0.02,0.02 0.02,0.04 0,0.04 -0.05,0.06 -0.16,0.06 -0.1,0 -0.14,-0.02 -0.14,-0.06 0,-0.01 0,-0.02 0.01,-0.02 0,-0.01 0.01,-0.02 0.03,-0.03 0.01,0 0.02,-0.01 0.03,-0.02 0,-0.01 0.01,-0.03 0.01,-0.06 0,-0.03 0.01,-0.08 0.01,-0.15 0,-0.07 0,-0.12 0,-0.17 0,-0.07 0,-0.11 -0.01,-0.13 0,-0.01 -0.01,-0.01 -0.01,-0.02 -0.01,0 -0.02,-0.01 -0.03,-0.01 -0.02,-0.01 -0.04,-0.03 -0.04,-0.05 0,-0.02 0.01,-0.03 0.02,-0.04 0.01,-0.01 0.02,-0.02 0.04,-0.02 0.01,-0.01 0.04,-0.01 0.06,-0.01 0.03,-0.01 0.06,-0.01 0.08,-0.01 0.04,0 0.08,0 0.1,0.01 0.01,0.01 0.02,0.01 0.02,0.02 0.01,0 0.02,0.02 0.03,0.04l0.11 0.22c0.02,0.02 0.03,0.03 0.03,0.04 0.01,0 0.01,0.01 0.02,0.01 0.01,0 0.02,-0.01 0.02,-0.01 0.01,-0.01 0.01,-0.02 0.02,-0.03l0.08 -0.16c0.01,-0.02 0.02,-0.03 0.02,-0.04 0.02,-0.04 0.04,-0.06 0.06,-0.07 0.02,-0.02 0.06,-0.03 0.12,-0.03 0.11,0 0.17,0.03 0.17,0.07 0,0.02 -0.01,0.02 -0.01,0.03 -0.01,0.01 -0.01,0.02 -0.03,0.02 -0.01,0.02 -0.03,0.04 -0.03,0.06 -0.01,0.05 -0.01,0.12 -0.01,0.19 0,0.1 0,0.19 0.01,0.26 0,0.02 0.01,0.03 0.01,0.03 0.01,0.01 0.02,0.02 0.04,0.03 0.01,0.01 0.02,0.03 0.02,0.04 0,0.03 -0.02,0.05 -0.05,0.06 -0.02,0 -0.04,0.01 -0.06,0.01 -0.02,0 -0.05,0 -0.09,0 -0.07,0 -0.12,0 -0.15,-0.01 -0.03,-0.01 -0.05,-0.03 -0.05,-0.05 0,-0.01 0,-0.02 0.01,-0.03 0,0 0.01,-0.01 0.03,-0.03 0.01,-0.01 0.02,-0.02 0.02,-0.05 0.01,-0.02 0.01,-0.06 0.01,-0.11 0,-0.03 0,-0.05 -0.01,-0.06 0,-0.01 -0.01,-0.02 -0.02,-0.02 -0.01,0 -0.02,0.01 -0.03,0.03 -0.01,0.01 -0.02,0.04 -0.04,0.08zm0.9 -0.55c0.1,0 0.19,0.02 0.26,0.08 0.05,0.04 0.09,0.09 0.12,0.15 0.03,0.06 0.05,0.12 0.05,0.18 0,0.09 -0.03,0.17 -0.09,0.24 -0.05,0.06 -0.12,0.1 -0.2,0.13 -0.05,0.02 -0.1,0.02 -0.15,0.02 -0.07,0 -0.13,-0.01 -0.19,-0.04 -0.07,-0.03 -0.13,-0.08 -0.17,-0.15 -0.04,-0.06 -0.06,-0.13 -0.06,-0.21 0,-0.09 0.03,-0.17 0.08,-0.24 0.04,-0.06 0.11,-0.11 0.18,-0.13 0.05,-0.02 0.11,-0.03 0.17,-0.03zm-0.05 0.16c-0.03,0 -0.06,0.01 -0.08,0.04 -0.01,0.02 -0.02,0.05 -0.02,0.08 0,0.04 0.01,0.09 0.03,0.15 0.02,0.05 0.04,0.1 0.07,0.15 0.01,0.02 0.02,0.03 0.04,0.04 0.02,0.01 0.03,0.02 0.05,0.02 0.03,0 0.05,-0.01 0.07,-0.03 0.02,-0.03 0.03,-0.05 0.03,-0.09 0,-0.05 -0.01,-0.1 -0.02,-0.15 -0.02,-0.05 -0.04,-0.1 -0.06,-0.13 -0.02,-0.03 -0.03,-0.05 -0.05,-0.06 -0.02,-0.01 -0.04,-0.02 -0.06,-0.02zm0.9 0.3c-0.02,0 -0.03,0.01 -0.03,0.02 0,0 -0.01,0.02 -0.01,0.06 0,0.04 0.01,0.08 0.01,0.11 0,0.01 0.01,0.01 0.01,0.02 0.01,0 0.01,0.01 0.02,0.01 0.03,0.02 0.04,0.03 0.04,0.05 0,0.03 -0.02,0.04 -0.05,0.06 -0.03,0.01 -0.09,0.01 -0.16,0.01 -0.14,0 -0.21,-0.03 -0.21,-0.08 0,-0.01 0,-0.02 0,-0.02 0.01,-0.01 0.02,-0.01 0.03,-0.02 0.02,-0.01 0.03,-0.03 0.04,-0.04 0,-0.02 0.01,-0.04 0.01,-0.08 0,-0.03 0,-0.12 0,-0.29 0,-0.05 0,-0.09 -0.01,-0.11 0,-0.02 -0.01,-0.03 -0.03,-0.04 -0.02,-0.01 -0.03,-0.01 -0.03,-0.02 -0.01,-0.01 -0.01,-0.02 -0.01,-0.03 0,-0.01 0,-0.02 0.01,-0.03 0.01,-0.01 0.03,-0.02 0.05,-0.03 0.02,0 0.04,0 0.07,0 0.01,0 0.04,0 0.09,0 0.01,0 0.02,0 0.05,0 0.03,0 0.07,0 0.13,0 0.04,-0.01 0.06,-0.01 0.08,-0.01 0.08,0 0.15,0.02 0.2,0.06 0.05,0.04 0.07,0.09 0.07,0.15 0,0.03 -0.01,0.06 -0.02,0.09 -0.02,0.03 -0.04,0.05 -0.07,0.07 -0.02,0 -0.02,0.01 -0.02,0.02 0,0.01 0.01,0.02 0.03,0.03 0.04,0.01 0.07,0.03 0.08,0.06 0.02,0.03 0.04,0.08 0.04,0.14 0.01,0.02 0.01,0.04 0.02,0.05 0.01,0 0.02,0.01 0.04,0.02 0.01,0 0.02,0 0.02,0.01 0.01,0.01 0.01,0.02 0.01,0.03 0,0.01 0,0.02 -0.01,0.03 -0.01,0.01 -0.02,0.02 -0.04,0.03 -0.03,0.01 -0.07,0.02 -0.13,0.02 -0.07,0 -0.13,-0.02 -0.16,-0.06 -0.01,-0.01 -0.03,-0.04 -0.04,-0.06 -0.01,-0.03 -0.02,-0.07 -0.03,-0.13 -0.01,-0.03 -0.02,-0.06 -0.03,-0.07 -0.02,-0.02 -0.04,-0.03 -0.06,-0.03zm-0.04 -0.29l0 0.13c0,0.01 0,0.01 0,0.01 0,0.01 0,0.02 0,0.03 0.01,0 0.02,0 0.03,0 0.03,0 0.06,0 0.07,-0.02 0.02,-0.02 0.02,-0.05 0.02,-0.08 0,-0.08 -0.02,-0.11 -0.07,-0.11 -0.02,0 -0.03,0 -0.04,0.01 0,0 -0.01,0.01 -0.01,0.03zm0.69 -0.16l0.29 0c0.06,0 0.1,0 0.13,0 0.03,0 0.05,-0.01 0.08,-0.02 0.01,0 0.01,0 0.02,0 0.02,0 0.04,0.01 0.05,0.03 0.03,0.04 0.04,0.08 0.04,0.13 0,0.02 -0.01,0.04 -0.02,0.06 -0.01,0.01 -0.02,0.02 -0.04,0.02 -0.01,0 -0.02,-0.01 -0.03,-0.01 -0.01,-0.01 -0.02,-0.02 -0.03,-0.04 -0.01,-0.02 -0.04,-0.04 -0.06,-0.05 -0.03,0 -0.07,-0.01 -0.13,-0.01 -0.04,0 -0.07,0.01 -0.08,0.02 0,0.01 0,0.02 -0.01,0.04 0,0.01 0,0.05 0,0.11 0,0.02 0.01,0.03 0.01,0.04 0.01,0 0.03,0.01 0.06,0.01 0.02,0 0.03,-0.01 0.04,-0.01 0.01,-0.01 0.01,-0.02 0.01,-0.04 0.01,-0.02 0.01,-0.04 0.01,-0.04 0,-0.01 0.01,-0.02 0.02,-0.03 0,0 0.01,-0.01 0.02,-0.01 0.02,0 0.03,0.01 0.04,0.03 0.01,0.01 0.02,0.03 0.02,0.05 0.01,0.03 0.01,0.06 0.01,0.09 0,0.06 -0.01,0.11 -0.03,0.15 -0.01,0.02 -0.02,0.03 -0.04,0.03 -0.01,0 -0.02,0 -0.03,-0.01 0,-0.01 -0.01,-0.02 -0.01,-0.04 -0.01,-0.04 -0.03,-0.06 -0.08,-0.06 -0.01,0 -0.02,0 -0.03,0.01 -0.01,0.01 -0.01,0.03 -0.01,0.06 0,0.02 0,0.04 0,0.07 0.01,0.03 0.01,0.05 0.01,0.06 0,0.01 0.01,0.02 0.03,0.02 0.02,0 0.04,0.01 0.08,0.01 0.06,0 0.1,-0.01 0.13,-0.03 0.03,-0.01 0.05,-0.04 0.07,-0.07 0.01,-0.03 0.02,-0.04 0.03,-0.05 0.01,-0.01 0.02,-0.01 0.03,-0.01 0.02,0 0.03,0.01 0.04,0.02 0.01,0.01 0.02,0.03 0.02,0.05 0,0.03 -0.01,0.05 -0.02,0.09 -0.01,0.03 -0.03,0.06 -0.05,0.09 0,0.01 -0.01,0.02 -0.02,0.03 0,0 -0.01,0 -0.02,0 -0.01,0 -0.02,0 -0.03,0 -0.02,-0.01 -0.06,-0.01 -0.1,-0.01l-0.48 0c-0.02,0 -0.03,0 -0.05,-0.01 -0.01,-0.01 -0.01,-0.02 -0.01,-0.04 0,-0.01 0,-0.02 0.01,-0.02 0,-0.01 0.01,-0.01 0.03,-0.02 0.01,-0.01 0.02,-0.01 0.02,-0.02 0.01,-0.01 0.01,-0.02 0.01,-0.03 0.02,-0.06 0.02,-0.14 0.02,-0.23 0,-0.15 -0.01,-0.24 -0.02,-0.28 -0.01,-0.01 -0.01,-0.01 -0.02,-0.02 0,0 -0.01,0 -0.02,-0.01 -0.03,0 -0.04,-0.02 -0.04,-0.04 0,-0.01 0.01,-0.02 0.01,-0.03 0.01,-0.01 0.02,-0.02 0.03,-0.02 0.02,-0.01 0.05,-0.01 0.09,-0.01z"/>
 </g>
</svg>
