<?xml version="1.0" encoding="UTF-8"?>
<!DOCTYPE svg PUBLIC "-//W3C//DTD SVG 1.1//EN" "http://www.w3.org/Graphics/SVG/1.1/DTD/svg11.dtd">
<!-- Creator: CorelDRAW 2019 (64-Bit) -->
<svg xmlns="http://www.w3.org/2000/svg" xml:space="preserve" width="300px" height="208px" version="1.1" style="shape-rendering:geometricPrecision; text-rendering:geometricPrecision; image-rendering:optimizeQuality; fill-rule:evenodd; clip-rule:evenodd"
viewBox="0 0 4.87 3.38"
 xmlns:xlink="http://www.w3.org/1999/xlink"
 xmlns:xodm="http://www.corel.com/coreldraw/odm/2003">
 <defs>
  <style type="text/css">
   <![CDATA[
    .fil0 {fill:#373435;fill-rule:nonzero}
   ]]>
  </style>
 </defs>
 <g id="Layer_x0020_1">
  <metadata id="CorelCorpID_0Corel-Layer"/>
  <path class="fil0" d="M0 0.01l0.59 0c0.1,0 0.17,0.01 0.22,0.03 0.06,0.02 0.1,0.04 0.14,0.08 0.03,0.03 0.05,0.06 0.06,0.11 0.02,0.04 0.03,0.08 0.03,0.13 0,0.06 -0.02,0.13 -0.06,0.18 -0.03,0.06 -0.08,0.11 -0.14,0.14 -0.07,0.03 -0.14,0.05 -0.22,0.05 -0.06,0 -0.12,0 -0.17,-0.01l0 -0.01c0.01,0 0.03,0 0.05,0 0.06,0 0.12,-0.01 0.18,-0.03 0.05,-0.03 0.1,-0.06 0.13,-0.11 0.03,-0.04 0.05,-0.1 0.05,-0.17 0,-0.08 -0.03,-0.16 -0.08,-0.23 -0.05,-0.07 -0.12,-0.11 -0.22,-0.11 -0.05,0 -0.09,0.01 -0.13,0.02 0,0.02 -0.01,0.08 -0.01,0.17 -0.01,0.09 -0.01,0.15 -0.01,0.19l0 0.4c0,0.02 0,0.06 0,0.12 0.01,0.06 0.01,0.11 0.01,0.15 0.01,0.05 0.01,0.09 0.02,0.11l0.21 0.04 -0.01 0.01 -0.64 0 0 -0.02 0.21 -0.03c0.01,-0.04 0.01,-0.09 0.01,-0.15 0.01,-0.05 0.01,-0.11 0.01,-0.19 0.01,-0.08 0.01,-0.13 0.01,-0.17l0 -0.2c0,-0.08 -0.01,-0.16 -0.01,-0.25 0,-0.09 -0.01,-0.16 -0.02,-0.21l-0.21 -0.03 0 -0.01zm0.26 0.04l0 1.18 0.06 0 0 -1.18 -0.06 0zm0.34 -0.02l-0.03 0 0 0.01c0.07,0.01 0.12,0.03 0.17,0.06 0.05,0.03 0.08,0.07 0.11,0.13 0.02,0.05 0.04,0.11 0.04,0.17 0,0.07 -0.02,0.13 -0.05,0.17 -0.03,0.05 -0.06,0.08 -0.1,0.1 -0.05,0.02 -0.09,0.03 -0.13,0.04l0 0.01 0.02 0c0.03,0 0.07,-0.01 0.12,-0.03 0.05,-0.02 0.09,-0.05 0.14,-0.1 0.04,-0.05 0.06,-0.12 0.06,-0.21 0,-0.05 -0.01,-0.1 -0.04,-0.16 -0.02,-0.05 -0.06,-0.1 -0.11,-0.13 -0.05,-0.04 -0.12,-0.06 -0.2,-0.06zm0.73 0.73l0 -0.27c0,-0.06 -0.01,-0.14 -0.01,-0.23 -0.01,-0.09 -0.01,-0.15 -0.02,-0.2l-0.2 -0.03 0 -0.01 0.56 0c0.1,0 0.19,0.02 0.25,0.06 0.07,0.04 0.11,0.09 0.13,0.15 0.03,0.05 0.04,0.1 0.04,0.14 0,0.05 -0.01,0.1 -0.04,0.14 -0.02,0.04 -0.05,0.08 -0.09,0.1 -0.04,0.03 -0.08,0.04 -0.12,0.05l0 0c0.04,0.02 0.07,0.04 0.09,0.06 0.02,0.02 0.05,0.05 0.07,0.09 0.03,0.03 0.06,0.08 0.1,0.14 0.05,0.07 0.08,0.12 0.1,0.15 0.03,0.04 0.05,0.06 0.08,0.09 0.04,0.04 0.09,0.07 0.14,0.07l0 0.01 -0.15 0c-0.08,0 -0.15,-0.03 -0.2,-0.08 -0.02,-0.02 -0.04,-0.04 -0.06,-0.07 -0.02,-0.02 -0.05,-0.07 -0.09,-0.13 -0.04,-0.06 -0.07,-0.11 -0.1,-0.15 -0.03,-0.04 -0.05,-0.06 -0.07,-0.08 -0.02,-0.02 -0.04,-0.04 -0.07,-0.05 -0.02,-0.01 -0.04,-0.01 -0.08,-0.01 -0.04,0 -0.07,0 -0.09,0 0,0.04 0,0.07 0,0.11l0 0.16c0,0.06 0,0.15 0.02,0.26l0.21 0.03 0 0.01 -0.63 0 0 -0.01 0.2 -0.03c0.01,-0.06 0.01,-0.14 0.02,-0.24 0,-0.11 0.01,-0.18 0.01,-0.23zm0.17 -0.39l0 0.14c0,0.05 0,0.09 0,0.14 0.02,0 0.05,0 0.1,0 0.07,0 0.13,-0.01 0.17,-0.04 0.05,-0.02 0.08,-0.05 0.1,-0.09 0.02,-0.04 0.03,-0.09 0.03,-0.14 0,-0.04 -0.01,-0.09 -0.03,-0.13 -0.02,-0.04 -0.04,-0.07 -0.07,-0.1 -0.03,-0.02 -0.06,-0.05 -0.1,-0.06 -0.04,-0.02 -0.07,-0.02 -0.11,-0.02 -0.03,0 -0.06,0 -0.07,0 -0.01,0.04 -0.01,0.08 -0.02,0.14 0,0.07 0,0.12 0,0.16zm0.3 0.42l0.19 0.27c0.04,0.06 0.08,0.11 0.12,0.14 0.03,0.02 0.07,0.04 0.12,0.04l0 -0.01c-0.05,-0.01 -0.1,-0.07 -0.17,-0.17l-0.15 -0.22c-0.03,-0.04 -0.06,-0.08 -0.09,-0.1 -0.03,-0.03 -0.06,-0.04 -0.1,-0.05l-0.01 0.01c0.03,0.02 0.06,0.05 0.09,0.09zm-0.45 -0.74l0 1.18 0.06 0 0 -1.18 -0.06 0zm0.23 -0.01l0 0.01c0.08,0 0.14,0.02 0.2,0.05 0.05,0.04 0.09,0.08 0.11,0.13 0.03,0.06 0.04,0.11 0.04,0.16 0,0.11 -0.05,0.2 -0.15,0.25l0 0c0.06,-0.02 0.11,-0.05 0.15,-0.09 0.04,-0.05 0.05,-0.11 0.05,-0.18 0,-0.05 -0.01,-0.1 -0.03,-0.14 -0.02,-0.04 -0.04,-0.08 -0.08,-0.11 -0.03,-0.02 -0.07,-0.05 -0.12,-0.06 -0.04,-0.02 -0.08,-0.02 -0.13,-0.02l-0.04 0zm1.59 -0.04c0.12,0 0.23,0.02 0.32,0.06 0.08,0.04 0.16,0.09 0.21,0.16 0.06,0.06 0.1,0.13 0.13,0.21 0.03,0.07 0.04,0.14 0.04,0.21 0,0.08 -0.02,0.15 -0.05,0.23 -0.03,0.07 -0.07,0.14 -0.13,0.2 -0.06,0.06 -0.13,0.11 -0.22,0.15 -0.08,0.04 -0.18,0.06 -0.28,0.06 -0.16,0 -0.29,-0.04 -0.39,-0.1 -0.11,-0.07 -0.19,-0.15 -0.24,-0.25 -0.05,-0.1 -0.07,-0.19 -0.07,-0.29 0,-0.08 0.01,-0.16 0.04,-0.24 0.04,-0.07 0.08,-0.14 0.14,-0.2 0.07,-0.07 0.14,-0.11 0.22,-0.15 0.09,-0.03 0.18,-0.05 0.28,-0.05zm0.01 0.06c-0.09,0 -0.17,0.02 -0.25,0.07 -0.07,0.04 -0.13,0.11 -0.18,0.2 -0.04,0.09 -0.06,0.19 -0.06,0.31 0,0.12 0.02,0.23 0.07,0.32 0.05,0.09 0.11,0.15 0.18,0.19 0.08,0.05 0.16,0.07 0.24,0.07 0.06,0 0.12,-0.01 0.18,-0.04 0.06,-0.02 0.11,-0.06 0.16,-0.11 0.05,-0.05 0.08,-0.11 0.11,-0.18 0.02,-0.07 0.04,-0.15 0.04,-0.23 0,-0.12 -0.02,-0.21 -0.04,-0.28 -0.03,-0.08 -0.07,-0.14 -0.12,-0.19 -0.05,-0.04 -0.1,-0.08 -0.16,-0.1 -0.05,-0.02 -0.11,-0.03 -0.17,-0.03zm0.04 -0.04l0 0.01c0.05,0.01 0.11,0.02 0.17,0.04 0.05,0.02 0.1,0.06 0.15,0.1 0.05,0.05 0.09,0.11 0.12,0.19 0.03,0.08 0.04,0.17 0.04,0.28 0,0.08 0,0.15 -0.02,0.21 -0.02,0.07 -0.05,0.13 -0.09,0.18 -0.03,0.06 -0.08,0.11 -0.15,0.14 -0.06,0.04 -0.13,0.06 -0.22,0.07l0 0.01c0.07,0 0.14,-0.02 0.21,-0.05 0.06,-0.03 0.12,-0.07 0.17,-0.12 0.05,-0.05 0.09,-0.11 0.12,-0.19 0.03,-0.07 0.05,-0.16 0.05,-0.25 0,-0.1 -0.02,-0.19 -0.05,-0.27 -0.03,-0.07 -0.07,-0.14 -0.12,-0.19 -0.06,-0.05 -0.11,-0.09 -0.18,-0.11 -0.06,-0.03 -0.13,-0.04 -0.2,-0.05zm-0.08 0.01l0 -0.01c-0.08,0.01 -0.16,0.02 -0.24,0.06 -0.07,0.03 -0.14,0.07 -0.2,0.13 -0.05,0.06 -0.1,0.12 -0.13,0.2 -0.03,0.07 -0.05,0.15 -0.05,0.23 0,0.1 0.03,0.19 0.08,0.29 0.06,0.09 0.13,0.17 0.22,0.23 0.1,0.06 0.2,0.09 0.32,0.09l0 -0.01c-0.11,-0.01 -0.21,-0.04 -0.29,-0.1 -0.09,-0.06 -0.15,-0.14 -0.2,-0.22 -0.04,-0.09 -0.06,-0.18 -0.06,-0.28 0,-0.07 0.01,-0.15 0.03,-0.22 0.03,-0.07 0.07,-0.13 0.12,-0.19 0.04,-0.05 0.1,-0.1 0.17,-0.13 0.07,-0.04 0.14,-0.06 0.23,-0.07zm1.06 0.02l0 1.19 0.06 0 0 -1.19 -0.06 0zm-0.26 -0.03l0.91 0 0.02 0.27 -0.01 0 -0.06 -0.22c-0.07,0 -0.12,0 -0.16,0 -0.11,0 -0.2,0.01 -0.27,0.02 -0.01,0.04 -0.01,0.1 -0.02,0.16 0,0.07 0,0.13 0,0.16 0,0.04 0,0.1 0,0.18 0.06,0 0.12,0.01 0.19,0.01 0.07,0 0.14,-0.01 0.18,-0.01l0.05 -0.15 0.01 0 0 0.36 -0.01 0 -0.05 -0.15c-0.03,0 -0.06,-0.01 -0.09,-0.01 -0.03,0 -0.06,0 -0.09,0 -0.03,0 -0.09,0 -0.19,0.01 0,0.06 0,0.12 0,0.18 0,0.05 0,0.11 0,0.2 0.01,0.08 0.01,0.15 0.02,0.2l0.21 0.03 0 0.01 -0.64 0 0 -0.01 0.21 -0.03c0,-0.06 0.01,-0.14 0.02,-0.24 0,-0.1 0,-0.19 0,-0.26l0 -0.24c0,-0.02 0,-0.07 0,-0.13 0,-0.05 0,-0.11 -0.01,-0.17 0,-0.05 0,-0.1 -0.01,-0.13l-0.21 -0.03 0 -0.01zm-2.04 2.14l-0.87 1.18 0.06 0 0.88 -1.18 -0.07 0zm-0.86 0.25l0.04 -0.3c0.05,0.01 0.08,0.01 0.09,0.01 0.04,0 0.06,0 0.09,0l0.81 0 0 0.04 -0.55 0.75c-0.04,0.04 -0.08,0.11 -0.13,0.18 -0.05,0.07 -0.09,0.14 -0.12,0.19 0.03,0.01 0.08,0.02 0.15,0.03 0.08,0 0.13,0.01 0.18,0.01l0.12 0c0.02,0 0.06,0 0.11,-0.01 0.05,0 0.1,-0.01 0.13,-0.01l0.09 -0.22 0.01 0 -0.04 0.29 -1.02 0 0 -0.03 0.57 -0.78c0.09,-0.12 0.17,-0.23 0.23,-0.34 -0.02,-0.01 -0.06,-0.02 -0.12,-0.03 -0.06,-0.01 -0.12,-0.01 -0.18,-0.01l-0.14 0c-0.03,0 -0.07,0 -0.12,0 -0.06,0.01 -0.1,0.01 -0.12,0.02l-0.07 0.21 -0.01 0zm1.35 -0.25l0 1.18 0.06 0 0 -1.18 -0.06 0zm-0.26 -0.03l0 -0.01 0.91 0 0.02 0.27 -0.02 0 -0.06 -0.21c-0.05,0 -0.1,0 -0.16,0 -0.11,0 -0.2,0 -0.27,0.02 -0.01,0.09 -0.01,0.2 -0.01,0.32 0,0.07 0,0.13 0,0.18 0.09,0 0.15,0 0.17,0 0.07,0 0.14,0 0.2,-0.01l0.04 -0.14 0.02 0 0 0.36 -0.02 0 -0.04 -0.15c-0.05,-0.01 -0.1,-0.01 -0.16,-0.01 -0.08,0 -0.15,0 -0.21,0.01 0,0.06 -0.01,0.13 0,0.19 0,0.08 0,0.15 0,0.2 0,0.05 0.01,0.1 0.01,0.14 0.07,0.02 0.16,0.03 0.27,0.03 0.07,0 0.12,0 0.17,-0.01l0.07 -0.2 0.01 0 -0.02 0.26 -0.92 0 0 -0.01 0.2 -0.03c0.01,-0.02 0.01,-0.05 0.02,-0.1 0,-0.05 0,-0.1 0.01,-0.16 0,-0.06 0,-0.11 0,-0.15 0,-0.04 0,-0.08 0,-0.11l0 -0.21c0,-0.03 0,-0.07 0,-0.12 0,-0.05 0,-0.1 -0.01,-0.16 0,-0.05 -0.01,-0.1 -0.01,-0.16l-0.21 -0.03zm1.47 0l-0.03 0c-0.06,0 -0.12,0.01 -0.17,0.03 -0.05,0.03 -0.1,0.06 -0.13,0.11 -0.03,0.05 -0.04,0.1 -0.04,0.16 0,0.07 0.03,0.14 0.09,0.2 0.03,0.03 0.06,0.05 0.08,0.07 0.02,0.02 0.06,0.04 0.11,0.07 0.05,0.04 0.09,0.06 0.12,0.09 0.03,0.02 0.05,0.04 0.07,0.06 0.05,0.05 0.08,0.11 0.08,0.17 0,0.04 -0.02,0.08 -0.04,0.12 -0.02,0.04 -0.06,0.08 -0.1,0.1 -0.05,0.03 -0.1,0.04 -0.16,0.04l0 0.01c0.07,0 0.13,-0.01 0.19,-0.04 0.05,-0.02 0.09,-0.06 0.12,-0.1 0.03,-0.05 0.04,-0.09 0.04,-0.14 0,-0.04 0,-0.08 -0.02,-0.11 -0.01,-0.03 -0.03,-0.07 -0.07,-0.1 -0.02,-0.02 -0.05,-0.05 -0.11,-0.08 -0.05,-0.04 -0.1,-0.07 -0.15,-0.11 -0.06,-0.04 -0.09,-0.07 -0.12,-0.09 -0.06,-0.06 -0.09,-0.12 -0.09,-0.19 0,-0.07 0.03,-0.13 0.08,-0.18 0.06,-0.05 0.14,-0.08 0.25,-0.09l0 0zm-0.42 0.94l0.07 0.21c0.03,0.02 0.07,0.03 0.11,0.04 0.04,0.01 0.08,0.01 0.11,0.01 0.05,0 0.08,0 0.12,-0.02 0.04,-0.01 0.06,-0.03 0.09,-0.05 0.02,-0.03 0.04,-0.05 0.05,-0.08 0.01,-0.03 0.02,-0.06 0.02,-0.09 0,-0.05 -0.02,-0.1 -0.06,-0.14 -0.04,-0.04 -0.1,-0.09 -0.19,-0.15 -0.09,-0.06 -0.16,-0.11 -0.2,-0.15 -0.03,-0.03 -0.06,-0.07 -0.07,-0.11 -0.02,-0.03 -0.03,-0.07 -0.03,-0.12 0,-0.05 0.01,-0.09 0.04,-0.14 0.03,-0.05 0.07,-0.09 0.12,-0.12 0.06,-0.04 0.13,-0.05 0.21,-0.05 0.04,0 0.08,0 0.12,0 0.04,0.01 0.07,0.01 0.08,0.01 0.02,0 0.03,0 0.04,0 0.01,0 0.02,0 0.03,0 0.01,0 0.01,-0.01 0.02,-0.01l0.01 0.3 -0.01 0 -0.06 -0.2c-0.08,-0.04 -0.14,-0.05 -0.2,-0.05 -0.05,0 -0.1,0.01 -0.14,0.02 -0.03,0.02 -0.06,0.05 -0.09,0.08 -0.02,0.03 -0.03,0.07 -0.03,0.11 0,0.04 0.02,0.08 0.05,0.11 0.02,0.04 0.06,0.07 0.11,0.11 0.05,0.03 0.11,0.07 0.17,0.1 0.05,0.04 0.1,0.08 0.13,0.11 0.07,0.07 0.11,0.15 0.11,0.24 0,0.05 -0.02,0.1 -0.04,0.15 -0.03,0.06 -0.07,0.1 -0.14,0.14 -0.06,0.03 -0.14,0.05 -0.24,0.05 -0.03,0 -0.07,0 -0.12,0 -0.05,-0.01 -0.09,-0.01 -0.11,-0.01 -0.01,0 -0.02,0 -0.03,0 0,0 -0.01,0 -0.02,0 -0.02,0 -0.02,0.01 -0.03,0.01l-0.01 -0.31 0.01 0z"/>
 </g>
</svg>
