<svg width="300px" height="209px" style="shape-rendering:geometricPrecision; text-rendering:geometricPrecision; image-rendering:optimizeQuality; fill-rule:evenodd; clip-rule:evenodd"
viewBox="0 0 167.96 117">
  <style type="text/css">
    .fil0 {fill:#373435}
  </style>
 <g id="Layer_x0020_1">
  <path class="fil0" d="M15.77 3.64c-0.24,1.69 -0.28,3.71 -0.37,5.38 -0.11,2.15 -0.23,4.34 -0.23,6.49l0 13.95c0,1.3 0.07,2.63 0.13,3.93 0.08,1.78 0.16,3.56 0.28,5.33 0.07,1.09 0.17,2.22 0.36,3.31l6.92 1.02c0.21,0.04 0.37,0.17 0.44,0.37 0.07,0.2 0.03,0.4 -0.11,0.56l-0.32 0.35c-0.11,0.12 -0.25,0.18 -0.41,0.18l-21.9 0c-0.18,0 -0.34,-0.08 -0.45,-0.22 -0.11,-0.15 -0.14,-0.32 -0.09,-0.49l0.12 -0.41c0.07,-0.21 0.24,-0.36 0.46,-0.39l6.65 -0.97c0.2,-1.58 0.34,-3.16 0.45,-4.75 0.14,-2.2 0.23,-4.4 0.3,-6.6 0.07,-1.92 0.13,-3.85 0.13,-5.76l0 -7.01c0,-2.77 -0.1,-5.54 -0.24,-8.3 -0.11,-2.22 -0.24,-4.49 -0.52,-6.71l-6.83 -0.97c-0.24,-0.03 -0.43,-0.21 -0.47,-0.45l-0.06 -0.35c-0.03,-0.17 0.01,-0.32 0.12,-0.45 0.11,-0.13 0.26,-0.2 0.43,-0.2l20.28 0c2.49,0 5.42,0.14 7.8,0.91 1.79,0.58 3.42,1.49 4.76,2.82 1.09,1.1 1.88,2.42 2.42,3.87 0.56,1.51 0.84,3.08 0.84,4.69 0,2.39 -0.63,4.63 -1.89,6.67 -1.29,2.12 -3.09,3.73 -5.26,4.92 -2.38,1.3 -5.01,1.83 -7.71,1.83 -2.03,0 -4.1,-0.15 -6.1,-0.55 -0.26,-0.05 -0.44,-0.27 -0.44,-0.54l0 -0.3c0,-0.16 0.06,-0.3 0.18,-0.41 0.12,-0.11 0.26,-0.16 0.43,-0.14 0.59,0.05 1.22,0.05 1.81,0.05 2.02,0 3.99,-0.33 5.87,-1.08 1.73,-0.7 3.15,-1.79 4.24,-3.31 1.18,-1.66 1.59,-3.65 1.59,-5.66 0,-2.77 -0.9,-5.28 -2.5,-7.54 -1.74,-2.46 -4.26,-3.44 -7.24,-3.44 -1.28,0 -2.6,0.1 -3.87,0.37zm28.9 -0.67l-6.6 -0.97c-0.27,-0.04 -0.47,-0.27 -0.47,-0.55l0 -0.3c0,-0.3 0.25,-0.55 0.55,-0.55l19.21 0c3.1,0 6.4,0.51 9.03,2.27 1.98,1.32 3.73,3.01 4.72,5.21 0.69,1.54 1.31,3.33 1.31,5.04 0,1.85 -0.4,3.62 -1.33,5.23 -0.87,1.5 -2.02,2.73 -3.48,3.66 -0.9,0.56 -1.85,1.01 -2.86,1.3 0.77,0.43 1.48,0.95 2.11,1.57 0.88,0.89 1.68,1.94 2.4,2.96 1.19,1.67 2.34,3.38 3.48,5.08 1.13,1.68 2.28,3.37 3.47,5.01 0.72,0.99 1.51,2.02 2.37,2.89 1.18,1.18 2.72,2.28 4.46,2.28 0.3,0 0.55,0.25 0.55,0.55l0 0.3c0,0.31 -0.25,0.56 -0.55,0.56l-5.08 0c-2.72,0 -5.25,-0.76 -7.18,-2.73 -0.74,-0.75 -1.42,-1.56 -2.03,-2.42 -1.06,-1.47 -2.08,-2.98 -3.1,-4.47 -1.17,-1.71 -2.35,-3.42 -3.57,-5.1 -0.66,-0.91 -1.43,-1.99 -2.23,-2.79 -0.59,-0.58 -1.35,-1.25 -2.12,-1.57 -0.8,-0.33 -1.98,-0.37 -2.84,-0.37 -0.75,0 -1.59,0.01 -2.36,0.12 -0.09,1.01 -0.13,2.02 -0.13,3.03l0 5.41c0,2.81 0.31,5.73 0.67,8.52l6.87 0.96c0.27,0.04 0.48,0.28 0.48,0.55l0 0.3c0,0.31 -0.25,0.56 -0.56,0.56l-21.71 0c-0.3,0 -0.55,-0.25 -0.55,-0.56l0 -0.3c0,-0.27 0.2,-0.5 0.47,-0.55l6.45 -0.95c0.36,-2.57 0.51,-5.25 0.64,-7.83 0.12,-2.58 0.27,-5.2 0.27,-7.78l0 -9.03c0,-2.65 -0.11,-5.3 -0.24,-7.94 -0.11,-2.19 -0.25,-4.42 -0.52,-6.6zm64.54 -2.97c3.76,0 7.58,0.55 11.02,2.12 2.92,1.34 5.55,3.15 7.65,5.59 1.88,2.17 3.4,4.6 4.38,7.31 0.86,2.4 1.38,4.91 1.38,7.45 0,2.77 -0.54,5.45 -1.57,8.02 -1.08,2.68 -2.66,5.07 -4.64,7.17 -2.15,2.28 -4.74,3.98 -7.61,5.21 -3.2,1.37 -6.62,1.94 -10.09,1.94 -4.78,0 -9.51,-0.93 -13.62,-3.49 -3.48,-2.16 -6.36,-4.99 -8.26,-8.65 -1.62,-3.14 -2.67,-6.53 -2.67,-10.08 0,-2.91 0.58,-5.73 1.7,-8.42 1.15,-2.76 2.8,-5.19 4.91,-7.3 2.21,-2.21 4.82,-3.87 7.71,-5.04 3.1,-1.26 6.37,-1.83 9.71,-1.83zm41.07 20.15c1.92,0.2 3.87,0.26 5.81,0.26 1.95,0 3.95,-0.05 5.9,-0.27l1.33 -4.67c0.07,-0.24 0.29,-0.41 0.54,-0.41l0.38 0c0.3,0 0.55,0.25 0.55,0.56l0 12.51c0,0.31 -0.25,0.56 -0.55,0.56l-0.38 0c-0.26,0 -0.47,-0.17 -0.54,-0.41l-1.33 -4.95c-0.93,-0.09 -1.86,-0.15 -2.78,-0.19 -1.06,-0.04 -2.12,-0.06 -3.18,-0.06 -1.91,0 -3.9,0.14 -5.81,0.26 -0.1,1.92 -0.14,3.84 -0.14,5.77 0,2.21 0.11,4.44 0.23,6.64 0.11,2.12 0.24,4.3 0.51,6.4l6.89 0.95c0.28,0.04 0.48,0.28 0.48,0.55l0 0.3c0,0.31 -0.25,0.56 -0.56,0.56l-22.08 0c-0.3,0 -0.55,-0.25 -0.55,-0.56l0 -0.3c0,-0.27 0.2,-0.51 0.47,-0.55l6.64 -0.94c0.35,-2.58 0.51,-5.23 0.64,-7.82 0.15,-2.9 0.26,-5.81 0.26,-8.71l0 -8.12c0,-1.49 -0.05,-2.99 -0.1,-4.47 -0.07,-1.93 -0.15,-3.86 -0.26,-5.78 -0.08,-1.4 -0.19,-2.84 -0.41,-4.23l-6.77 -1.03c-0.27,-0.04 -0.47,-0.27 -0.47,-0.55l0 -0.3c0,-0.3 0.25,-0.55 0.55,-0.55l31.25 0c0.29,0 0.54,0.23 0.56,0.52l0.59 9.27c0.01,0.16 -0.04,0.3 -0.15,0.41 -0.1,0.12 -0.24,0.18 -0.4,0.18l-0.42 0c-0.25,0 -0.46,-0.16 -0.53,-0.4l-2 -6.98c-1.66,-0.09 -3.34,-0.15 -5,-0.15 -2.89,0 -5.94,0.15 -8.78,0.75 -0.19,1.69 -0.29,3.42 -0.39,5.12 -0.11,1.78 -0.2,3.59 -0.2,5.37 0,1.81 0.09,3.65 0.2,5.46zm-105.34 92.38c1.41,0.36 3.08,0.55 4.45,0.73 1.96,0.25 4,0.47 5.98,0.47l4.18 0c1.19,0 2.47,-0.12 3.66,-0.22 1.36,-0.12 2.75,-0.27 4.1,-0.5l2.98 -7.2c0.08,-0.22 0.28,-0.35 0.51,-0.35l0.44 0c0.17,0 0.31,0.07 0.42,0.2 0.11,0.12 0.15,0.27 0.13,0.44l-1.49 10.13c-0.04,0.27 -0.27,0.47 -0.55,0.47l-35.04 0c-0.3,0 -0.55,-0.25 -0.55,-0.55l0 -1.15c0,-0.13 0.03,-0.23 0.11,-0.33l19.69 -26.63c2.66,-3.6 5.21,-7.31 7.49,-11.17 -1.1,-0.33 -2.48,-0.54 -3.5,-0.71 -2.02,-0.34 -4.07,-0.52 -6.12,-0.52l-4.53 0c-1.43,0 -2.9,0.12 -4.32,0.25 -1.07,0.1 -2.38,0.21 -3.46,0.45l-2.42 6.82c-0.08,0.22 -0.28,0.37 -0.52,0.37l-0.41 0c-0.17,0 -0.31,-0.07 -0.42,-0.19 -0.11,-0.12 -0.15,-0.27 -0.13,-0.44l1.32 -10.13c0.03,-0.29 0.31,-0.51 0.6,-0.48 1.08,0.11 2.18,0.25 3.28,0.32 0.98,0.11 1.97,0.18 2.95,0.18l27.76 0c0.3,0 0.55,0.25 0.55,0.55l0 1.21c0,0.13 -0.03,0.23 -0.11,0.33l-18.96 25.54c-1.5,2.07 -2.95,4.18 -4.4,6.29 -1.29,1.88 -2.55,3.83 -3.67,5.82zm57.36 -36.68c-1.72,-0.11 -3.44,-0.15 -5.16,-0.15 -2.78,0 -5.84,0.11 -8.59,0.69 -0.4,3.42 -0.52,6.9 -0.52,10.34 0,1.86 0.02,3.78 0.18,5.64 1.77,0.1 3.61,0.23 5.37,0.23 2.12,0 4.25,-0.12 6.36,-0.33l1.22 -4.6c0.07,-0.25 0.28,-0.41 0.54,-0.41l0.5 0c0.3,0 0.55,0.25 0.55,0.55l0 12.46c0,0.31 -0.25,0.56 -0.55,0.56l-0.5 0c-0.26,0 -0.48,-0.17 -0.54,-0.42l-1.27 -4.89c-1.72,-0.18 -3.45,-0.25 -5.18,-0.25 -2.17,0 -4.34,0.08 -6.5,0.3 -0.21,2.03 -0.28,4.07 -0.18,6.12 0.02,2.28 0.06,4.57 0.14,6.84 0.04,1.42 0.12,2.84 0.27,4.25 2.79,0.78 5.99,0.95 8.85,0.95 1.72,0 3.47,-0.04 5.19,-0.21l2.23 -6.71c0.08,-0.23 0.29,-0.38 0.53,-0.38l0.41 0c0.16,0 0.3,0.06 0.4,0.18 0.11,0.11 0.16,0.26 0.15,0.42l-0.65 9.15c-0.02,0.3 -0.26,0.52 -0.55,0.52l-31.5 0c-0.3,0 -0.55,-0.25 -0.55,-0.55l0 -0.3c0,-0.28 0.2,-0.51 0.47,-0.55l6.59 -0.97c0.18,-1.05 0.27,-2.17 0.35,-3.21 0.15,-1.82 0.25,-3.66 0.34,-5.49 0.08,-1.7 0.15,-3.4 0.2,-5.1 0.03,-1.2 0.06,-2.4 0.06,-3.6l0 -7.36c0,-1.32 -0.05,-2.65 -0.09,-3.97 -0.06,-1.79 -0.15,-3.57 -0.26,-5.36 -0.11,-1.7 -0.26,-3.39 -0.45,-5.09l-6.83 -0.96c-0.27,-0.04 -0.47,-0.28 -0.47,-0.56l0 -0.29c0,-0.3 0.25,-0.55 0.55,-0.55l31.15 0c0.29,0 0.53,0.22 0.55,0.51l0.74 9.1c0.02,0.16 -0.03,0.3 -0.14,0.42 -0.11,0.12 -0.25,0.18 -0.41,0.18l-0.47 0c-0.25,0 -0.46,-0.16 -0.53,-0.4l-2 -6.75zm9.94 36.85c1.13,0.49 2.35,0.83 3.56,1.09 1.21,0.25 2.51,0.44 3.76,0.42 1.3,0 2.59,-0.21 3.8,-0.71 1.03,-0.43 2.01,-1.01 2.8,-1.81 0.71,-0.72 1.26,-1.54 1.65,-2.47 0.35,-0.85 0.57,-1.74 0.57,-2.66 0,-1.75 -0.57,-3.24 -1.8,-4.49 -1.81,-1.84 -4.34,-3.58 -6.48,-5.02 -2.27,-1.53 -4.81,-3.3 -6.76,-5.24 -1.1,-1.13 -2.09,-2.42 -2.77,-3.85 -0.65,-1.38 -0.93,-2.85 -0.93,-4.37 0,-1.87 0.54,-3.64 1.45,-5.27 1.04,-1.87 2.61,-3.28 4.45,-4.35 2.21,-1.28 4.79,-1.72 7.32,-1.72 1.36,0 2.72,0.07 4.07,0.18 0.95,0.08 1.96,0.18 2.89,0.18 0.44,-0.02 0.88,-0.03 1.31,-0.04 0.31,-0.01 0.63,-0.01 0.93,-0.05 0.26,-0.03 0.52,-0.06 0.79,-0.09 0.16,-0.01 0.3,0.03 0.42,0.14 0.12,0.11 0.19,0.25 0.19,0.41l0.17 9.99c0,0.16 -0.05,0.29 -0.16,0.4 -0.11,0.11 -0.24,0.17 -0.4,0.17l-0.38 0c-0.25,0 -0.46,-0.17 -0.53,-0.41l-1.77 -6.52c-2.03,-0.87 -4.39,-1.63 -6.6,-1.63 -1.48,0 -2.94,0.25 -4.29,0.89 -1.16,0.56 -2.16,1.34 -2.89,2.42 -0.69,1.03 -1.01,2.17 -1.01,3.42 0,1.36 0.5,2.55 1.37,3.6 1.1,1.33 2.52,2.46 3.95,3.42 1.84,1.23 3.7,2.44 5.55,3.65 1.7,1.11 3.41,2.36 4.84,3.79 2.33,2.33 3.64,5.13 3.64,8.43 0,1.95 -0.55,3.82 -1.4,5.55 -1.03,2.11 -2.75,3.68 -4.74,4.87 -2.54,1.51 -5.61,1.98 -8.53,1.98 -1.46,0 -2.93,-0.09 -4.38,-0.21 -1.22,-0.1 -2.49,-0.21 -3.71,-0.21 -0.26,0 -0.54,0 -0.81,0.03 -0.32,0.03 -0.63,0.06 -0.95,0.09 -0.26,0.02 -0.55,0.06 -0.81,0.06 -0.3,0 -0.54,-0.23 -0.56,-0.53l-0.46 -10.3c-0.01,-0.15 0.04,-0.29 0.15,-0.4 0.11,-0.12 0.24,-0.18 0.4,-0.18l0.41 0c0.25,0 0.46,0.16 0.53,0.4l2.15 6.95zm-102.21 -109.97l0 39.47 0.93 0 0 -39.47 -0.93 0zm15.2 0.12c0.34,0.19 0.68,0.39 1.01,0.62 1.72,1.19 3.03,2.75 3.92,4.65 0.88,1.92 1.3,3.97 1.3,6.08 0,2.17 -0.4,4.36 -1.6,6.2 -0.64,0.98 -1.39,1.87 -2.29,2.59 1.11,-0.67 2.07,-1.57 2.9,-2.57 1.54,-1.85 1.98,-4.34 1.98,-6.69 0,-1.85 -0.4,-3.63 -1.1,-5.34 -0.74,-1.82 -2,-3.25 -3.62,-4.35 -0.77,-0.53 -1.62,-0.92 -2.5,-1.19zm27.26 19.36c0.91,0.11 1.89,0.12 2.78,0.12 1.92,0 4.06,-0.26 5.76,-1.22 1.31,-0.73 2.4,-1.73 3.05,-3.1 0.64,-1.34 0.92,-2.78 0.92,-4.28 0,-1.47 -0.27,-2.89 -0.89,-4.23 -0.58,-1.24 -1.34,-2.36 -2.34,-3.29 -0.94,-0.89 -2,-1.59 -3.19,-2.09 -1.09,-0.46 -2.24,-0.72 -3.43,-0.72 -0.68,0 -1.47,0.01 -2.17,0.13 -0.2,1.46 -0.31,2.96 -0.42,4.43 -0.12,1.73 -0.22,3.48 -0.22,5.22l0 4.79c0,1.42 0.05,2.83 0.15,4.24zm22.3 19.81c-1.7,-1.4 -3.31,-3.64 -4.25,-4.99l-5.08 -7.31c-0.84,-1.21 -1.85,-2.55 -2.98,-3.51 -0.38,-0.33 -0.8,-0.61 -1.24,-0.83 0.58,0.62 1.09,1.3 1.53,1.99l6.34 9.2c1.08,1.53 2.47,3.36 3.95,4.51 0.54,0.42 1.12,0.73 1.73,0.94zm-27.52 -39.15l0 39.39 0.98 0 0 -39.39 -0.98 0zm14.62 0.82c1.71,1.21 3.1,2.75 3.97,4.68 0.8,1.75 1.28,3.61 1.28,5.54 0,2.22 -0.53,4.13 -1.61,5.71 0.23,-0.23 0.44,-0.47 0.65,-0.73 1.28,-1.63 1.82,-3.53 1.82,-5.59 0,-1.61 -0.29,-3.18 -1,-4.63 -0.65,-1.34 -1.54,-2.5 -2.7,-3.44 -0.75,-0.61 -1.56,-1.12 -2.41,-1.54zm47.5 -0.54c-2.92,0 -5.61,0.75 -8.1,2.28 -2.61,1.6 -4.53,3.9 -5.91,6.62 -1.61,3.19 -2.2,6.75 -2.2,10.29 0,3.72 0.61,7.51 2.41,10.8 1.46,2.68 3.43,4.97 6.11,6.48 2.4,1.35 4.98,2.1 7.73,2.1 2.13,0 4.19,-0.4 6.15,-1.24 1.98,-0.85 3.71,-2.07 5.2,-3.63 1.61,-1.68 2.77,-3.7 3.58,-5.89 0.92,-2.51 1.29,-5.19 1.29,-7.86 0,-3.06 -0.25,-6.62 -1.36,-9.49 -0.9,-2.33 -2.23,-4.39 -4,-6.16 -1.44,-1.45 -3.12,-2.55 -5.04,-3.26 -1.89,-0.7 -3.85,-1.04 -5.86,-1.04zm13.51 3.57c1.6,1.72 2.74,3.84 3.57,6.03 1.17,3.12 1.55,6.58 1.55,9.89 0,2.45 -0.29,4.88 -0.91,7.25 -0.61,2.31 -1.58,4.46 -2.94,6.43 -0.46,0.67 -0.97,1.29 -1.51,1.87 0.33,-0.29 0.65,-0.6 0.96,-0.92 1.79,-1.82 3.09,-3.98 4.02,-6.35 1.06,-2.68 1.48,-5.53 1.48,-8.4 0,-3.02 -0.41,-6.1 -1.54,-8.92 -0.95,-2.4 -2.3,-4.6 -4.17,-6.4 -0.16,-0.16 -0.34,-0.32 -0.51,-0.48zm-27.94 0.24c-0.48,0.4 -0.93,0.82 -1.37,1.26 -1.9,1.9 -3.41,4.09 -4.49,6.55 -1.07,2.45 -1.61,5.02 -1.61,7.69 0,3.44 0.99,6.65 2.69,9.62 1.44,2.51 3.31,4.62 5.57,6.34 -1.99,-1.74 -3.62,-3.8 -4.83,-6.2 -1.52,-3 -2.32,-6.21 -2.32,-9.58 0,-2.67 0.44,-5.29 1.35,-7.81 0.89,-2.46 2.18,-4.72 3.9,-6.7 0.35,-0.41 0.72,-0.8 1.11,-1.17zm50.01 -4.11l0 39.47 0.92 0 0 -39.47 -0.92 0zm-78.97 72.25l-29.16 39.28 0.95 0 29.1 -39.28 -0.89 0zm16.86 -0.06l0 39.4 0.92 0 0 -39.4 -0.92 0zm30.43 3.4c-0.05,0.07 -0.1,0.14 -0.15,0.21 -1.01,1.52 -1.48,3.22 -1.48,5.04 0,2.6 1.29,4.77 3.07,6.55 0.83,0.8 1.7,1.58 2.63,2.28 1.21,0.91 2.48,1.77 3.73,2.62 1.36,0.92 2.71,1.85 4.04,2.82 0.89,0.65 1.78,1.36 2.53,2.15 1.73,1.72 2.8,3.8 2.8,6.26 0,1.64 -0.47,3.16 -1.3,4.57 -0.42,0.72 -0.93,1.36 -1.51,1.92 0.89,-0.65 1.67,-1.43 2.29,-2.38 0.87,-1.31 1.38,-2.76 1.38,-4.34 0,-1.22 -0.18,-2.43 -0.63,-3.57 -0.49,-1.24 -1.38,-2.35 -2.32,-3.29 -1,-1 -2.44,-1.98 -3.6,-2.78 -1.79,-1.23 -3.58,-2.45 -5.38,-3.68 -1.36,-0.93 -2.86,-1.97 -4.06,-3.12 -1.96,-1.94 -3.23,-4.29 -3.23,-7.09 0,-1.54 0.44,-2.93 1.19,-4.17z"/>
 </g>
</svg>
