<svg width="200px" height="103px" style="shape-rendering:geometricPrecision; text-rendering:geometricPrecision; image-rendering:optimizeQuality; fill-rule:evenodd; clip-rule:evenodd"
viewBox="0 0 19.63 10.11">
  <style type="text/css">
    .logo_shadow {fill:black ;fill-rule:nonzero}
    .logo {fill:white ;fill-rule:nonzero}
  </style>
   <mask id="id0">
  <linearGradient id="id1" gradientUnits="userSpaceOnUse" x1="11.03" y1="0" x2="11.03" y2="3.75">
   <stop offset="0" style="stop-opacity:0.509804; stop-color:white"/>
   <stop offset="1" style="stop-opacity:1; stop-color:white"/>
  </linearGradient>
    <rect style="fill:url(#id1)" x="0.17" width="19.46" height="3.77"/>
   </mask>
   <mask id="id2">
  <linearGradient id="id3" gradientUnits="userSpaceOnUse" x1="10.53" y1="6.38" x2="10.53" y2="10.05">
   <stop offset="0" style="stop-opacity:0.501961; stop-color:white"/>
   <stop offset="1" style="stop-opacity:1; stop-color:white"/>
  </linearGradient>
    <rect style="fill:url(#id3)" x="2.41" y="6.38" width="15.44" height="3.73"/>
   </mask>
 <g id="Layer_x0020_1">
  <path class="logo_shadow" style="mask:url(#id0)" d="M3.04 0.22c0.03,-0.02 0.06,-0.06 0.1,-0.11 0.04,-0.05 0.08,-0.08 0.11,-0.08 0.05,0 0.07,0.04 0.06,0.12l-0.1 0.75 -0.01 0.09c-0.01,0.05 -0.04,0.07 -0.09,0.07 -0.04,0 -0.06,-0.01 -0.07,-0.02 -0.02,-0.02 -0.03,-0.08 -0.05,-0.17 -0.04,-0.16 -0.13,-0.31 -0.28,-0.44 -0.14,-0.13 -0.31,-0.2 -0.49,-0.2 -0.18,0 -0.34,0.06 -0.48,0.16 -0.14,0.1 -0.24,0.23 -0.28,0.38 -0.03,0.12 0,0.23 0.08,0.33 0.09,0.1 0.27,0.19 0.56,0.28 0.45,0.14 0.74,0.31 0.86,0.51 0.12,0.21 0.15,0.43 0.08,0.68 -0.06,0.26 -0.18,0.47 -0.35,0.64 -0.17,0.17 -0.36,0.31 -0.56,0.41 -0.2,0.1 -0.44,0.15 -0.71,0.15 -0.16,0 -0.31,-0.02 -0.46,-0.07 -0.16,-0.04 -0.31,-0.11 -0.47,-0.19 -0.04,0.04 -0.09,0.09 -0.13,0.16 -0.05,0.07 -0.1,0.1 -0.14,0.1 -0.04,0 -0.06,-0.04 -0.04,-0.14l0.18 -0.99c0,-0.05 0.01,-0.07 0.01,-0.08 0.02,-0.06 0.05,-0.08 0.1,-0.08 0.04,0 0.07,0.04 0.08,0.13 0.04,0.28 0.13,0.51 0.28,0.69 0.14,0.18 0.34,0.27 0.59,0.27 0.21,0 0.41,-0.06 0.57,-0.19 0.17,-0.13 0.27,-0.27 0.31,-0.43 0.04,-0.17 0.02,-0.3 -0.08,-0.41 -0.09,-0.12 -0.28,-0.22 -0.57,-0.32 -0.28,-0.1 -0.49,-0.2 -0.61,-0.29 -0.13,-0.09 -0.22,-0.22 -0.27,-0.38 -0.04,-0.16 -0.05,-0.32 0,-0.48 0.07,-0.29 0.24,-0.53 0.52,-0.73 0.27,-0.2 0.6,-0.3 0.98,-0.3 0.2,0 0.46,0.06 0.77,0.18zm3.29 1.53l0.24 -0.83c0.06,-0.24 0.08,-0.4 0.06,-0.5 -0.02,-0.1 -0.11,-0.15 -0.26,-0.16 -0.12,0 -0.18,-0.03 -0.16,-0.09 0.01,-0.05 0.06,-0.08 0.13,-0.08 0.08,0 0.21,0 0.38,0.01 0.21,0.01 0.34,0.02 0.36,0.02 0.31,0 0.58,-0.01 0.82,-0.03 0.04,0 0.08,-0.01 0.09,-0.01 0.07,0 0.1,0.03 0.09,0.08 -0.02,0.06 -0.06,0.08 -0.14,0.09 -0.13,0 -0.22,0.02 -0.29,0.05 -0.06,0.03 -0.11,0.08 -0.15,0.15 -0.04,0.07 -0.12,0.31 -0.24,0.72 -0.12,0.42 -0.2,0.7 -0.24,0.86 -0.17,0.64 -0.26,1.03 -0.29,1.18 -0.03,0.14 -0.03,0.24 0.02,0.3 0.04,0.06 0.13,0.09 0.27,0.09 0.08,0 0.12,0.02 0.1,0.08 -0.01,0.05 -0.05,0.07 -0.11,0.07 -0.02,0 -0.07,0 -0.14,-0.01l-0.75 -0.03c-0.05,0 -0.13,0.01 -0.26,0.01 -0.26,0.02 -0.42,0.03 -0.49,0.03 -0.07,0 -0.09,-0.03 -0.08,-0.08 0.02,-0.05 0.05,-0.07 0.1,-0.07 0.13,0 0.23,-0.03 0.31,-0.07 0.07,-0.05 0.14,-0.15 0.21,-0.32 0.07,-0.16 0.16,-0.48 0.29,-0.97 0.02,-0.05 0.03,-0.13 0.06,-0.23 -0.32,-0.01 -0.6,-0.01 -0.85,-0.01 -0.28,0 -0.51,0.01 -0.67,0.02 -0.12,0.37 -0.21,0.7 -0.29,0.99 -0.05,0.21 -0.07,0.36 -0.04,0.44 0.02,0.08 0.11,0.13 0.25,0.13 0.08,0.01 0.1,0.03 0.09,0.08 -0.01,0.05 -0.06,0.08 -0.13,0.08 -0.03,0 -0.07,0 -0.12,-0.01 -0.21,-0.02 -0.43,-0.03 -0.67,-0.03 -0.11,0 -0.26,0.01 -0.45,0.02 -0.13,0.01 -0.22,0.01 -0.25,0.01 -0.1,0 -0.14,-0.03 -0.12,-0.08 0.01,-0.05 0.05,-0.07 0.13,-0.08 0.14,-0.02 0.24,-0.05 0.3,-0.09 0.06,-0.05 0.12,-0.13 0.18,-0.26 0.06,-0.12 0.16,-0.48 0.32,-1.08 0.16,-0.59 0.25,-0.91 0.26,-0.97 0.07,-0.27 0.11,-0.46 0.13,-0.58 0.01,-0.12 0,-0.2 -0.04,-0.24 -0.03,-0.04 -0.1,-0.07 -0.19,-0.08 -0.07,-0.01 -0.11,-0.02 -0.12,-0.03 -0.02,-0.01 -0.02,-0.03 -0.01,-0.07 0.01,-0.05 0.05,-0.08 0.11,-0.08 0.08,0 0.21,0.01 0.39,0.02 0.1,0 0.22,0.01 0.35,0.01l0.78 -0.03c0.09,0 0.12,0.03 0.11,0.08 -0.01,0.06 -0.06,0.09 -0.13,0.09 -0.12,0 -0.21,0.01 -0.26,0.04 -0.05,0.03 -0.1,0.09 -0.15,0.17 -0.04,0.09 -0.1,0.26 -0.16,0.5l-0.2 0.78c0.23,0.02 0.48,0.03 0.74,0.03 0.27,0 0.53,-0.01 0.78,-0.03zm3.66 -1.75l0.19 0c0.11,0.52 0.23,1.34 0.38,2.46 0.07,0.51 0.13,0.82 0.18,0.93 0.04,0.11 0.15,0.18 0.31,0.2 0.05,0.01 0.07,0.03 0.06,0.07 -0.02,0.06 -0.06,0.09 -0.13,0.09 -0.04,0 -0.13,-0.01 -0.29,-0.02 -0.19,-0.02 -0.34,-0.03 -0.47,-0.03 -0.13,0 -0.29,0.01 -0.5,0.02 -0.15,0.02 -0.25,0.02 -0.3,0.02 -0.08,0 -0.12,-0.03 -0.11,-0.08 0.01,-0.04 0.05,-0.06 0.11,-0.06 0.23,-0.02 0.36,-0.11 0.4,-0.27 0.02,-0.07 0.02,-0.21 0.01,-0.4 -0.02,-0.2 -0.04,-0.38 -0.07,-0.54 -0.12,0 -0.21,0 -0.28,0 -0.36,0 -0.65,0 -0.85,0 -0.27,0.43 -0.42,0.72 -0.46,0.86 -0.03,0.1 -0.01,0.17 0.06,0.23 0.06,0.05 0.14,0.08 0.23,0.09 0.06,0.01 0.09,0.04 0.08,0.09 -0.01,0.05 -0.06,0.07 -0.13,0.07 -0.03,0 -0.11,0 -0.23,-0.01 -0.16,-0.01 -0.27,-0.02 -0.35,-0.02 -0.14,0 -0.28,0.01 -0.41,0.03 -0.04,0 -0.06,0.01 -0.09,0.01 -0.06,0 -0.09,-0.03 -0.08,-0.09 0.01,-0.04 0.04,-0.06 0.09,-0.08 0.12,-0.03 0.21,-0.06 0.29,-0.11 0.07,-0.05 0.16,-0.13 0.27,-0.26 0.1,-0.13 0.24,-0.33 0.41,-0.62 0.39,-0.63 0.95,-1.5 1.68,-2.58zm-0.44 0.95l-0.78 1.22 0.96 -0.01c-0.01,-0.15 -0.04,-0.34 -0.08,-0.59 -0.05,-0.27 -0.08,-0.47 -0.1,-0.62zm3.72 2.81c-0.08,0 -0.41,0 -0.98,-0.01l-0.61 0 -0.35 -0.01c-0.08,0 -0.13,0 -0.15,-0.01 -0.02,-0.01 -0.02,-0.03 -0.02,-0.07 0.02,-0.05 0.06,-0.08 0.14,-0.08 0.15,0 0.27,-0.02 0.35,-0.07 0.09,-0.05 0.15,-0.15 0.21,-0.28 0.05,-0.14 0.14,-0.41 0.26,-0.82 0.12,-0.41 0.23,-0.79 0.32,-1.13 0.12,-0.48 0.18,-0.78 0.16,-0.89 -0.02,-0.11 -0.12,-0.17 -0.3,-0.18 -0.06,-0.01 -0.09,-0.03 -0.08,-0.08 0.02,-0.05 0.05,-0.07 0.11,-0.07 0.03,0 0.15,0.01 0.34,0.03 0.22,0.02 0.37,0.03 0.46,0.03l1.04 -0.03c0.35,0 0.67,0.07 0.95,0.2 0.29,0.13 0.49,0.35 0.6,0.65 0.11,0.3 0.11,0.64 0.02,1.02 -0.08,0.28 -0.2,0.54 -0.38,0.78 -0.17,0.25 -0.38,0.45 -0.63,0.62 -0.26,0.16 -0.49,0.27 -0.71,0.33 -0.22,0.05 -0.47,0.07 -0.75,0.07zm-0.14 -0.19c0.39,0 0.72,-0.14 1.02,-0.41 0.29,-0.26 0.5,-0.65 0.63,-1.15 0.13,-0.5 0.12,-0.92 -0.03,-1.25 -0.16,-0.33 -0.46,-0.49 -0.9,-0.49 -0.15,0 -0.24,0.01 -0.28,0.02 -0.03,0.02 -0.06,0.04 -0.07,0.06 -0.01,0.02 -0.07,0.22 -0.19,0.61l-0.28 0.93c-0.06,0.23 -0.14,0.51 -0.23,0.85 -0.06,0.26 -0.1,0.43 -0.1,0.53 0,0.09 0.03,0.17 0.09,0.22 0.06,0.05 0.17,0.08 0.34,0.08zm6.5 -3.45c-0.01,0.29 -0.03,0.57 -0.05,0.86 -0.01,0.05 -0.04,0.08 -0.1,0.08 -0.03,0 -0.05,-0.03 -0.08,-0.08 -0.11,-0.27 -0.24,-0.45 -0.37,-0.54 -0.13,-0.09 -0.34,-0.13 -0.64,-0.13 -0.16,0 -0.32,0.01 -0.48,0.04 -0.12,0.32 -0.23,0.67 -0.33,1.06 -0.02,0.06 -0.04,0.17 -0.08,0.33l0.21 0c0.13,0 0.24,-0.02 0.35,-0.05 0.1,-0.04 0.2,-0.11 0.29,-0.23 0.1,-0.11 0.16,-0.19 0.17,-0.22 0.04,-0.06 0.07,-0.09 0.11,-0.09 0.05,0 0.07,0.02 0.06,0.07 0,0.01 -0.01,0.03 -0.01,0.04 -0.06,0.11 -0.16,0.45 -0.3,1.01 -0.02,0.08 -0.03,0.15 -0.04,0.22 0,0.02 0,0.03 0,0.05 -0.01,0.05 -0.05,0.07 -0.11,0.07 -0.04,0 -0.06,-0.05 -0.05,-0.14 0.01,-0.17 -0.04,-0.3 -0.15,-0.39 -0.11,-0.09 -0.3,-0.14 -0.58,-0.14 -0.09,0.31 -0.15,0.51 -0.17,0.6 -0.11,0.42 -0.17,0.67 -0.17,0.74 -0.01,0.08 0.02,0.14 0.09,0.19 0.06,0.05 0.19,0.08 0.39,0.08 0.69,0 1.2,-0.23 1.54,-0.67 0.04,-0.06 0.09,-0.09 0.12,-0.09 0.05,0 0.07,0.02 0.06,0.07 -0.01,0.03 -0.02,0.06 -0.04,0.11l-0.39 0.78 -0.98 0c-0.28,0 -0.54,-0.01 -0.78,-0.02 -0.24,-0.01 -0.42,-0.02 -0.56,-0.02 -0.15,0 -0.39,0.01 -0.7,0.03 -0.04,0 -0.07,0 -0.08,0 -0.09,0 -0.12,-0.03 -0.11,-0.08 0.01,-0.06 0.05,-0.08 0.12,-0.08 0.18,0 0.31,-0.05 0.4,-0.14 0.09,-0.1 0.17,-0.29 0.24,-0.59l0.39 -1.4c0.12,-0.48 0.19,-0.78 0.21,-0.89 0.01,-0.11 0,-0.18 -0.04,-0.22 -0.04,-0.04 -0.13,-0.07 -0.26,-0.09 -0.06,-0.01 -0.08,-0.03 -0.07,-0.07 0.01,-0.06 0.05,-0.08 0.12,-0.08l0.65 0.02 2.2 0z"/>
  <path class="logo_shadow" style="mask:url(#id2)" d="M5.77 6.68c0.05,-0.05 0.11,-0.1 0.16,-0.16 0.07,-0.07 0.12,-0.1 0.16,-0.1 0.03,0 0.05,0.01 0.06,0.02 0.01,0.02 0,0.08 -0.02,0.17l-0.16 0.85 -0.03 0.11c-0.02,0.07 -0.05,0.11 -0.11,0.11 -0.04,0 -0.06,-0.03 -0.07,-0.09 -0.02,-0.19 -0.1,-0.41 -0.24,-0.64 -0.13,-0.24 -0.34,-0.36 -0.64,-0.36 -0.22,0 -0.42,0.07 -0.6,0.19 -0.18,0.13 -0.34,0.3 -0.48,0.52 -0.15,0.22 -0.26,0.49 -0.34,0.8 -0.14,0.52 -0.13,0.94 0.02,1.25 0.15,0.31 0.4,0.47 0.74,0.47 0.38,0 0.78,-0.23 1.21,-0.68 0.05,-0.05 0.09,-0.08 0.13,-0.08 0.05,0 0.07,0.03 0.06,0.09 -0.03,0.12 -0.23,0.31 -0.58,0.57 -0.36,0.26 -0.75,0.39 -1.18,0.39 -0.58,0 -0.98,-0.17 -1.22,-0.53 -0.24,-0.35 -0.29,-0.78 -0.15,-1.3 0.13,-0.51 0.41,-0.96 0.85,-1.34 0.43,-0.37 0.91,-0.56 1.41,-0.56 0.36,0 0.7,0.1 1.02,0.3zm2.9 -0.3c0.37,0 0.67,0.08 0.91,0.22 0.23,0.15 0.4,0.36 0.49,0.64 0.09,0.28 0.1,0.59 0.01,0.92 -0.13,0.5 -0.44,0.96 -0.93,1.35 -0.48,0.39 -1,0.59 -1.57,0.59 -0.51,0 -0.9,-0.16 -1.18,-0.49 -0.28,-0.32 -0.34,-0.76 -0.2,-1.32 0.14,-0.52 0.45,-0.97 0.92,-1.35 0.48,-0.37 0.99,-0.56 1.55,-0.56zm0.46 1.86c0.15,-0.55 0.16,-0.97 0.05,-1.24 -0.12,-0.28 -0.32,-0.42 -0.61,-0.42 -0.28,0 -0.56,0.14 -0.82,0.42 -0.26,0.28 -0.46,0.69 -0.6,1.24 -0.14,0.53 -0.16,0.94 -0.06,1.23 0.1,0.29 0.31,0.44 0.61,0.44 0.27,0 0.53,-0.14 0.8,-0.4 0.27,-0.26 0.48,-0.69 0.63,-1.27zm3.32 -0.04c0.23,0.04 0.41,0.11 0.54,0.23 0.13,0.11 0.19,0.34 0.18,0.68 0,0.31 0.02,0.52 0.08,0.62 0.06,0.11 0.17,0.16 0.32,0.17 0.09,0.01 0.12,0.03 0.11,0.08 -0.02,0.05 -0.09,0.08 -0.23,0.08l-1.05 -0.03c-0.08,-0.11 -0.1,-0.3 -0.07,-0.58 0.05,-0.36 0.06,-0.61 0.04,-0.76 -0.01,-0.15 -0.07,-0.25 -0.16,-0.32 -0.09,-0.06 -0.21,-0.09 -0.36,-0.09 -0.04,0 -0.1,0 -0.17,0.01 -0.17,0.64 -0.27,1.04 -0.31,1.19 -0.03,0.14 -0.03,0.25 0.01,0.32 0.04,0.06 0.13,0.1 0.28,0.11 0.08,0 0.12,0.03 0.1,0.08 -0.01,0.05 -0.05,0.07 -0.12,0.07l-0.83 -0.03c-0.12,0 -0.26,0.01 -0.44,0.02 -0.17,0.01 -0.27,0.01 -0.31,0.01 -0.08,0 -0.11,-0.03 -0.1,-0.08 0.02,-0.05 0.06,-0.07 0.12,-0.07 0.11,0 0.21,-0.03 0.31,-0.08 0.1,-0.05 0.2,-0.27 0.3,-0.65l0.13 -0.51 0.26 -0.98c0.13,-0.51 0.19,-0.82 0.18,-0.93 -0.02,-0.12 -0.12,-0.17 -0.32,-0.18 -0.07,0 -0.1,-0.02 -0.09,-0.07 0.01,-0.06 0.07,-0.08 0.17,-0.08 0.52,0 0.95,-0.01 1.32,-0.04 0.16,-0.01 0.3,-0.01 0.43,-0.01 0.41,0 0.72,0.08 0.91,0.24 0.19,0.17 0.25,0.39 0.18,0.65 -0.05,0.18 -0.15,0.34 -0.29,0.48 -0.15,0.15 -0.32,0.25 -0.5,0.32 -0.19,0.07 -0.4,0.12 -0.62,0.13zm-0.72 -0.11c0.05,0 0.08,0 0.11,0 0.16,0 0.32,-0.03 0.5,-0.09 0.18,-0.06 0.32,-0.15 0.42,-0.28 0.1,-0.13 0.17,-0.27 0.21,-0.42 0.06,-0.23 0.04,-0.41 -0.06,-0.54 -0.11,-0.12 -0.26,-0.19 -0.48,-0.19 -0.09,0 -0.19,0.02 -0.31,0.05l-0.39 1.47zm3.83 0.26l-0.28 1.03c-0.05,0.22 -0.06,0.36 -0.01,0.43 0.04,0.06 0.13,0.1 0.25,0.1 0.09,0 0.14,0.01 0.16,0.02 0.01,0.01 0.02,0.03 0.01,0.07 -0.01,0.04 -0.07,0.07 -0.18,0.07 -0.04,0 -0.15,-0.01 -0.32,-0.02 -0.23,-0.01 -0.39,-0.02 -0.48,-0.02 -0.11,0 -0.25,0.01 -0.43,0.02 -0.15,0.01 -0.26,0.02 -0.33,0.02 -0.05,0 -0.08,-0.03 -0.06,-0.08 0.01,-0.04 0.06,-0.07 0.17,-0.08 0.1,-0.01 0.18,-0.04 0.23,-0.08 0.05,-0.03 0.1,-0.1 0.14,-0.19 0.05,-0.1 0.12,-0.35 0.23,-0.75 0.11,-0.41 0.2,-0.77 0.29,-1.08l0.22 -0.85c0.03,-0.12 0.03,-0.21 -0.01,-0.28 -0.04,-0.07 -0.13,-0.11 -0.27,-0.11 -0.07,0 -0.09,-0.02 -0.08,-0.08 0.02,-0.06 0.08,-0.09 0.19,-0.09l0.07 0.01c0.1,0 0.22,0.01 0.36,0.01l1.12 -0.02c0.56,0 0.93,0.08 1.11,0.25 0.18,0.17 0.23,0.41 0.15,0.71 -0.08,0.3 -0.26,0.54 -0.55,0.73 -0.29,0.18 -0.7,0.27 -1.25,0.27 -0.12,0 -0.27,0 -0.45,-0.01zm0.05 -0.19c0.1,0.01 0.18,0.01 0.24,0.01 0.29,0 0.53,-0.09 0.72,-0.26 0.19,-0.18 0.31,-0.38 0.38,-0.63 0.06,-0.23 0.04,-0.4 -0.07,-0.51 -0.1,-0.12 -0.24,-0.18 -0.44,-0.18 -0.1,0 -0.24,0.02 -0.43,0.05l-0.4 1.52z"/>
  <g id="_2917438658032">
   <path class="logo" d="M2.06 0.22c0.02,-0.02 0.05,-0.06 0.07,-0.11 0.03,-0.05 0.06,-0.08 0.09,-0.08 0.05,0 0.08,0.04 0.1,0.12l0.09 0.75 0.01 0.09c0,0.05 -0.02,0.07 -0.07,0.07 -0.04,0 -0.07,-0.01 -0.08,-0.02 -0.02,-0.02 -0.05,-0.08 -0.1,-0.17 -0.07,-0.16 -0.2,-0.31 -0.38,-0.44 -0.18,-0.13 -0.36,-0.2 -0.55,-0.2 -0.17,0 -0.32,0.06 -0.44,0.16 -0.11,0.1 -0.17,0.23 -0.17,0.38 0,0.12 0.05,0.23 0.16,0.33 0.11,0.1 0.32,0.19 0.63,0.28 0.49,0.14 0.82,0.31 1,0.51 0.17,0.21 0.25,0.43 0.25,0.68 0,0.26 -0.06,0.47 -0.19,0.64 -0.12,0.17 -0.27,0.31 -0.45,0.41 -0.17,0.1 -0.4,0.15 -0.67,0.15 -0.15,0 -0.31,-0.02 -0.48,-0.07 -0.17,-0.04 -0.34,-0.11 -0.51,-0.19 -0.04,0.04 -0.07,0.09 -0.1,0.16 -0.02,0.07 -0.06,0.1 -0.11,0.1 -0.04,0 -0.07,-0.04 -0.08,-0.14l-0.07 -0.99c-0.01,-0.05 -0.01,-0.07 -0.01,-0.08 0,-0.06 0.03,-0.08 0.08,-0.08 0.04,0 0.08,0.04 0.11,0.13 0.12,0.28 0.27,0.51 0.46,0.69 0.19,0.18 0.41,0.27 0.66,0.27 0.22,0 0.39,-0.06 0.52,-0.19 0.13,-0.13 0.2,-0.27 0.2,-0.43 0,-0.17 -0.06,-0.3 -0.18,-0.41 -0.13,-0.12 -0.35,-0.22 -0.66,-0.32 -0.31,-0.1 -0.54,-0.2 -0.69,-0.29 -0.15,-0.09 -0.27,-0.22 -0.36,-0.38 -0.09,-0.16 -0.13,-0.32 -0.13,-0.48 0,-0.29 0.11,-0.53 0.33,-0.73 0.22,-0.2 0.52,-0.3 0.9,-0.3 0.2,0 0.48,0.06 0.82,0.18zm3.69 1.53l0.02 -0.83c0,-0.24 -0.02,-0.4 -0.07,-0.5 -0.05,-0.1 -0.15,-0.15 -0.3,-0.16 -0.12,0 -0.19,-0.03 -0.19,-0.09 0,-0.05 0.04,-0.08 0.11,-0.08 0.09,0 0.21,0 0.39,0.01 0.22,0.01 0.34,0.02 0.36,0.02 0.31,0 0.58,-0.01 0.82,-0.03 0.04,0 0.07,-0.01 0.09,-0.01 0.07,0 0.1,0.03 0.1,0.08 0,0.06 -0.04,0.08 -0.12,0.09 -0.12,0 -0.21,0.02 -0.27,0.05 -0.05,0.03 -0.09,0.08 -0.11,0.15 -0.02,0.07 -0.04,0.31 -0.05,0.72 -0.01,0.42 -0.02,0.7 -0.02,0.86 0,0.64 0.01,1.03 0.01,1.18 0.01,0.14 0.04,0.24 0.1,0.3 0.06,0.06 0.16,0.09 0.3,0.09 0.08,0 0.12,0.02 0.12,0.08 0,0.05 -0.03,0.07 -0.09,0.07 -0.03,0 -0.07,0 -0.15,-0.01l-0.75 -0.03c-0.05,0 -0.13,0.01 -0.26,0.01 -0.25,0.02 -0.41,0.03 -0.48,0.03 -0.07,0 -0.1,-0.03 -0.1,-0.08 0,-0.05 0.03,-0.07 0.08,-0.07 0.13,0 0.23,-0.03 0.29,-0.07 0.05,-0.05 0.1,-0.15 0.12,-0.32 0.03,-0.16 0.05,-0.48 0.05,-0.97 0,-0.05 -0.01,-0.13 -0.01,-0.23 -0.32,-0.01 -0.6,-0.01 -0.85,-0.01 -0.28,0 -0.5,0.01 -0.67,0.02 -0.01,0.37 -0.02,0.7 -0.02,0.99 0,0.21 0.02,0.36 0.07,0.44 0.04,0.08 0.14,0.13 0.29,0.13 0.07,0.01 0.11,0.03 0.11,0.08 0,0.05 -0.04,0.08 -0.12,0.08 -0.02,0 -0.06,0 -0.12,-0.01 -0.21,-0.02 -0.44,-0.03 -0.67,-0.03 -0.11,0 -0.26,0.01 -0.45,0.02 -0.13,0.01 -0.21,0.01 -0.25,0.01 -0.1,0 -0.14,-0.03 -0.14,-0.08 0,-0.05 0.03,-0.07 0.11,-0.08 0.14,-0.02 0.23,-0.05 0.28,-0.09 0.05,-0.05 0.09,-0.13 0.11,-0.26 0.02,-0.12 0.04,-0.48 0.04,-1.08 0.01,-0.59 0.01,-0.91 0.01,-0.97 0,-0.27 -0.01,-0.46 -0.03,-0.58 -0.02,-0.12 -0.05,-0.2 -0.1,-0.24 -0.04,-0.04 -0.11,-0.07 -0.2,-0.08 -0.08,-0.01 -0.12,-0.02 -0.14,-0.03 -0.02,-0.01 -0.03,-0.03 -0.03,-0.07 0,-0.05 0.03,-0.08 0.1,-0.08 0.07,0 0.2,0.01 0.39,0.02 0.1,0 0.22,0.01 0.35,0.01l0.77 -0.03c0.09,0 0.14,0.03 0.14,0.08 0,0.06 -0.04,0.09 -0.11,0.09 -0.12,0 -0.21,0.01 -0.25,0.04 -0.05,0.03 -0.08,0.09 -0.1,0.17 -0.02,0.09 -0.04,0.26 -0.04,0.5l0.01 0.78c0.23,0.02 0.48,0.03 0.75,0.03 0.26,0 0.52,-0.01 0.77,-0.03zm3.2 -1.75l0.2 0c0.24,0.52 0.58,1.34 1.01,2.46 0.21,0.51 0.34,0.82 0.42,0.93 0.08,0.11 0.2,0.18 0.36,0.2 0.06,0.01 0.08,0.03 0.08,0.07 0,0.06 -0.03,0.09 -0.1,0.09 -0.04,0 -0.14,-0.01 -0.3,-0.02 -0.19,-0.02 -0.35,-0.03 -0.48,-0.03 -0.12,0 -0.29,0.01 -0.49,0.02 -0.15,0.02 -0.25,0.02 -0.29,0.02 -0.09,0 -0.13,-0.03 -0.13,-0.08 0,-0.04 0.03,-0.06 0.09,-0.06 0.22,-0.02 0.33,-0.11 0.33,-0.27 0,-0.07 -0.03,-0.21 -0.1,-0.4 -0.06,-0.2 -0.13,-0.38 -0.21,-0.54 -0.12,0 -0.21,0 -0.27,0 -0.37,0 -0.65,0 -0.86,0 -0.15,0.43 -0.23,0.72 -0.23,0.86 0,0.1 0.04,0.17 0.11,0.23 0.08,0.05 0.17,0.08 0.26,0.09 0.07,0.01 0.1,0.04 0.1,0.09 0,0.05 -0.04,0.07 -0.11,0.07 -0.03,0 -0.11,0 -0.23,-0.01 -0.16,-0.01 -0.28,-0.02 -0.35,-0.02 -0.14,0 -0.28,0.01 -0.41,0.03 -0.03,0 -0.06,0.01 -0.08,0.01 -0.07,0 -0.1,-0.03 -0.1,-0.09 0,-0.04 0.02,-0.06 0.06,-0.08 0.11,-0.03 0.2,-0.06 0.26,-0.11 0.06,-0.05 0.13,-0.13 0.2,-0.26 0.07,-0.13 0.16,-0.33 0.26,-0.62 0.22,-0.63 0.56,-1.5 1,-2.58zm-0.19 0.95l-0.46 1.22 0.95 -0.01c-0.05,-0.15 -0.13,-0.34 -0.23,-0.59 -0.12,-0.27 -0.2,-0.47 -0.26,-0.62zm4.45 2.81c-0.08,0 -0.41,0 -0.99,-0.01l-0.6 0 -0.35 -0.01c-0.09,0 -0.14,0 -0.16,-0.01 -0.02,-0.01 -0.03,-0.03 -0.03,-0.07 0,-0.05 0.04,-0.08 0.12,-0.08 0.15,0 0.26,-0.02 0.33,-0.07 0.07,-0.05 0.11,-0.15 0.13,-0.28 0.02,-0.14 0.03,-0.41 0.05,-0.82 0.02,-0.41 0.02,-0.79 0.02,-1.13 0,-0.48 -0.02,-0.78 -0.07,-0.89 -0.04,-0.11 -0.16,-0.17 -0.34,-0.18 -0.07,-0.01 -0.1,-0.03 -0.1,-0.08 0,-0.05 0.03,-0.07 0.09,-0.07 0.03,0 0.15,0.01 0.35,0.03 0.22,0.02 0.38,0.03 0.46,0.03l1.04 -0.03c0.35,0 0.68,0.07 1,0.2 0.32,0.13 0.57,0.35 0.76,0.65 0.19,0.3 0.29,0.64 0.29,1.02 0,0.28 -0.06,0.54 -0.17,0.78 -0.11,0.25 -0.27,0.45 -0.48,0.62 -0.21,0.16 -0.42,0.27 -0.62,0.33 -0.21,0.05 -0.45,0.07 -0.73,0.07zm-0.19 -0.19c0.39,0 0.69,-0.14 0.91,-0.41 0.22,-0.26 0.34,-0.65 0.34,-1.15 0,-0.5 -0.12,-0.92 -0.36,-1.25 -0.24,-0.33 -0.58,-0.49 -1.03,-0.49 -0.15,0 -0.24,0.01 -0.27,0.02 -0.03,0.02 -0.05,0.04 -0.06,0.06 0,0.02 -0.01,0.22 -0.03,0.61l-0.03 0.93c-0.01,0.23 -0.01,0.51 -0.01,0.85 0,0.26 0.01,0.43 0.03,0.53 0.03,0.09 0.07,0.17 0.15,0.22 0.07,0.05 0.19,0.08 0.36,0.08zm5.61 -3.45c0.06,0.29 0.11,0.57 0.17,0.86 0,0.05 -0.03,0.08 -0.08,0.08 -0.03,0 -0.06,-0.03 -0.1,-0.08 -0.19,-0.27 -0.36,-0.45 -0.51,-0.54 -0.16,-0.09 -0.38,-0.13 -0.68,-0.13 -0.16,0 -0.32,0.01 -0.47,0.04 -0.03,0.32 -0.05,0.67 -0.05,1.06 0,0.06 0,0.17 0,0.33l0.21 0c0.13,0 0.24,-0.02 0.34,-0.05 0.09,-0.04 0.17,-0.11 0.24,-0.23 0.06,-0.11 0.1,-0.19 0.11,-0.22 0.02,-0.06 0.04,-0.09 0.08,-0.09 0.06,0 0.08,0.02 0.08,0.07 0,0.01 0,0.03 0,0.04 -0.03,0.11 -0.04,0.45 -0.04,1.01 0,0.08 0.01,0.15 0.02,0.22 0.01,0.02 0.01,0.03 0.01,0.05 0,0.05 -0.03,0.07 -0.09,0.07 -0.04,0 -0.07,-0.05 -0.09,-0.14 -0.04,-0.17 -0.12,-0.3 -0.25,-0.39 -0.13,-0.09 -0.33,-0.14 -0.61,-0.14 -0.01,0.31 -0.02,0.51 -0.02,0.6 0,0.42 0.01,0.67 0.02,0.74 0.01,0.08 0.06,0.14 0.14,0.19 0.08,0.05 0.22,0.08 0.41,0.08 0.69,0 1.15,-0.23 1.37,-0.67 0.03,-0.06 0.06,-0.09 0.1,-0.09 0.05,0 0.08,0.02 0.08,0.07 0,0.03 -0.01,0.06 -0.02,0.11l-0.18 0.78 -0.99 0c-0.27,0 -0.53,-0.01 -0.78,-0.02 -0.24,-0.01 -0.43,-0.02 -0.56,-0.02 -0.16,0 -0.39,0.01 -0.69,0.03 -0.04,0 -0.07,0 -0.09,0 -0.08,0 -0.13,-0.03 -0.13,-0.08 0,-0.06 0.04,-0.08 0.11,-0.08 0.18,0 0.29,-0.05 0.35,-0.14 0.07,-0.1 0.1,-0.29 0.1,-0.59l0.01 -1.4c0,-0.48 0,-0.78 -0.01,-0.89 -0.02,-0.11 -0.05,-0.18 -0.1,-0.22 -0.05,-0.04 -0.15,-0.07 -0.28,-0.09 -0.06,-0.01 -0.09,-0.03 -0.09,-0.07 0,-0.06 0.03,-0.08 0.1,-0.08l0.66 0.02 2.2 0z"/>
   <path class="logo" d="M4.81 6.68c0.04,-0.05 0.08,-0.1 0.12,-0.16 0.05,-0.07 0.1,-0.1 0.13,-0.1 0.04,0 0.06,0.01 0.07,0.02 0.01,0.02 0.02,0.08 0.03,0.17l0.05 0.85 0.01 0.11c0,0.07 -0.03,0.11 -0.09,0.11 -0.04,0 -0.07,-0.03 -0.09,-0.09 -0.07,-0.19 -0.21,-0.41 -0.4,-0.64 -0.2,-0.24 -0.44,-0.36 -0.74,-0.36 -0.22,0 -0.4,0.07 -0.55,0.19 -0.15,0.13 -0.27,0.3 -0.35,0.52 -0.08,0.22 -0.12,0.49 -0.12,0.8 0,0.52 0.11,0.94 0.34,1.25 0.24,0.31 0.52,0.47 0.87,0.47 0.37,0 0.71,-0.23 1.03,-0.68 0.03,-0.05 0.07,-0.08 0.1,-0.08 0.06,0 0.09,0.03 0.09,0.09 0,0.12 -0.14,0.31 -0.43,0.57 -0.29,0.26 -0.65,0.39 -1.08,0.39 -0.57,0 -1.02,-0.17 -1.35,-0.53 -0.34,-0.35 -0.5,-0.78 -0.5,-1.3 0,-0.51 0.17,-0.96 0.5,-1.34 0.33,-0.37 0.76,-0.56 1.27,-0.56 0.36,0 0.72,0.1 1.09,0.3zm2.82 -0.3c0.37,0 0.69,0.08 0.97,0.22 0.27,0.15 0.49,0.36 0.66,0.64 0.17,0.28 0.25,0.59 0.25,0.92 0,0.5 -0.19,0.96 -0.57,1.35 -0.38,0.39 -0.85,0.59 -1.41,0.59 -0.52,0 -0.95,-0.16 -1.32,-0.49 -0.36,-0.32 -0.54,-0.76 -0.54,-1.32 0,-0.52 0.19,-0.97 0.56,-1.35 0.38,-0.37 0.85,-0.56 1.4,-0.56zm0.95 1.86c0,-0.55 -0.09,-0.97 -0.28,-1.24 -0.19,-0.28 -0.42,-0.42 -0.71,-0.42 -0.29,0 -0.52,0.14 -0.71,0.42 -0.19,0.28 -0.28,0.69 -0.28,1.24 0,0.53 0.09,0.94 0.27,1.23 0.18,0.29 0.42,0.44 0.72,0.44 0.27,0 0.5,-0.14 0.7,-0.4 0.19,-0.26 0.29,-0.69 0.29,-1.27zm3.31 -0.04c0.24,0.04 0.45,0.11 0.61,0.23 0.15,0.11 0.27,0.34 0.35,0.68 0.08,0.31 0.16,0.52 0.25,0.62 0.08,0.11 0.2,0.16 0.36,0.17 0.08,0.01 0.13,0.03 0.13,0.08 0,0.05 -0.07,0.08 -0.21,0.08l-1.05 -0.03c-0.11,-0.11 -0.19,-0.3 -0.23,-0.58 -0.05,-0.36 -0.1,-0.61 -0.16,-0.76 -0.05,-0.15 -0.13,-0.25 -0.24,-0.32 -0.11,-0.06 -0.24,-0.09 -0.38,-0.09 -0.05,0 -0.1,0 -0.18,0.01 0,0.64 0.01,1.04 0.01,1.19 0.01,0.14 0.04,0.25 0.09,0.32 0.06,0.06 0.16,0.1 0.31,0.11 0.08,0 0.13,0.03 0.13,0.08 0,0.05 -0.04,0.07 -0.11,0.07l-0.84 -0.03c-0.11,0 -0.26,0.01 -0.43,0.02 -0.17,0.01 -0.27,0.01 -0.31,0.01 -0.08,0 -0.12,-0.03 -0.12,-0.08 0,-0.05 0.04,-0.07 0.1,-0.07 0.11,0 0.2,-0.03 0.29,-0.08 0.08,-0.05 0.13,-0.27 0.13,-0.65l-0.01 -0.51 0.01 -0.98c0,-0.51 -0.03,-0.82 -0.07,-0.93 -0.04,-0.12 -0.16,-0.17 -0.36,-0.18 -0.08,0 -0.11,-0.02 -0.11,-0.07 0,-0.06 0.05,-0.08 0.15,-0.08 0.51,0 0.95,-0.01 1.3,-0.04 0.16,-0.01 0.31,-0.01 0.43,-0.01 0.42,0 0.74,0.08 0.97,0.24 0.24,0.17 0.36,0.39 0.36,0.65 0,0.18 -0.06,0.34 -0.17,0.48 -0.11,0.15 -0.25,0.25 -0.42,0.32 -0.16,0.07 -0.36,0.12 -0.58,0.13zm-0.75 -0.11c0.05,0 0.09,0 0.11,0 0.16,0 0.32,-0.03 0.48,-0.09 0.16,-0.06 0.28,-0.15 0.34,-0.28 0.07,-0.13 0.1,-0.27 0.1,-0.42 0,-0.23 -0.06,-0.41 -0.2,-0.54 -0.13,-0.12 -0.31,-0.19 -0.52,-0.19 -0.09,0 -0.19,0.02 -0.31,0.05l0 1.47zm3.9 0.26l0 1.03c0,0.22 0.03,0.36 0.09,0.43 0.06,0.06 0.16,0.1 0.28,0.1 0.09,0 0.14,0.01 0.16,0.02 0.02,0.01 0.04,0.03 0.04,0.07 0,0.04 -0.06,0.07 -0.16,0.07 -0.05,0 -0.16,-0.01 -0.33,-0.02 -0.24,-0.01 -0.4,-0.02 -0.49,-0.02 -0.1,0 -0.24,0.01 -0.42,0.02 -0.15,0.01 -0.26,0.02 -0.32,0.02 -0.06,0 -0.09,-0.03 -0.09,-0.08 0,-0.04 0.05,-0.07 0.15,-0.08 0.1,-0.01 0.17,-0.04 0.21,-0.08 0.04,-0.03 0.07,-0.1 0.09,-0.19 0.02,-0.1 0.03,-0.35 0.03,-0.75 0,-0.41 0.01,-0.77 0.01,-1.08l-0.01 -0.85c0,-0.12 -0.03,-0.21 -0.08,-0.28 -0.06,-0.07 -0.16,-0.11 -0.3,-0.11 -0.06,0 -0.1,-0.02 -0.1,-0.08 0,-0.06 0.06,-0.09 0.17,-0.09l0.08 0.01c0.1,0 0.22,0.01 0.35,0.01l1.12 -0.02c0.56,0 0.95,0.08 1.18,0.25 0.22,0.17 0.33,0.41 0.33,0.71 0,0.3 -0.12,0.54 -0.36,0.73 -0.24,0.18 -0.63,0.27 -1.17,0.27 -0.13,0 -0.28,0 -0.46,-0.01zm0 -0.19c0.1,0.01 0.18,0.01 0.24,0.01 0.29,0 0.51,-0.09 0.65,-0.26 0.15,-0.18 0.22,-0.38 0.22,-0.63 0,-0.23 -0.07,-0.4 -0.2,-0.51 -0.13,-0.12 -0.3,-0.18 -0.49,-0.18 -0.1,0 -0.24,0.02 -0.42,0.05l0 1.52z"/>
  </g>
 </g>
</svg>
